<?xml version='1.0' encoding='utf-8'?>
<svg xmlns="http://www.w3.org/2000/svg" width="1920" height="1080" viewBox="0 0 1920 1080" data-theme="dark">
  <style>
        @font-face {
            font-family: 'Inter';
            src: url('assets/fonts/Inter-Regular.ttf') format('truetype');
            font-weight: 400;
            font-style: normal;
            font-display: swap;
        }
        @font-face {
            font-family: 'Inter';
            src: url('assets/fonts/Inter-Bold.ttf') format('truetype');
            font-weight: 600;
            font-style: normal;
            font-display: swap;
        }
        @font-face {
            font-family: 'Inter';
            src: url('assets/fonts/Inter-Bold.ttf') format('truetype');
            font-weight: 800;
            font-style: normal;
            font-display: swap;
        }
        
:root {
    --background: #0f172a;
    --panel: #1e293b;
    --primary-text: #f1f5f9;
    --muted-text: #94a3b8;
    --inverse-text: #0f172a;
    --border: #334155;
    --shadow-color: #000000;
    --icon-pad-bg: #1e293b;
    --art-glow: #7dd3fc;
    --art-glow-opacity: 0.18;
    --art-sheen: #ffffff;
    --art-sheen-opacity: 0.18;
    --art-shadow: #000000;
    --art-shadow-opacity: 0.28;
    --art-muted-line: #64748b;
    --art-panel-tint: #1e293b;
    --font-family: 'Inter', 'Segoe UI', 'Kalam', Roboto, Helvetica, Arial, sans-serif;
    --radius-xl: 16px;
    --font-family-headline: 'Inter', 'Segoe UI', 'Kalam', Roboto, Helvetica, Arial, sans-serif;
    --font-family-body: 'Inter', 'Segoe UI', 'Kalam', Roboto, Helvetica, Arial, sans-serif;
    --font-heading: 'Inter', 'Segoe UI', 'Kalam', Roboto, Helvetica, Arial, sans-serif;
    --font-body: 'Inter', 'Segoe UI', 'Kalam', Roboto, Helvetica, Arial, sans-serif;
    --font-size-h1: 56px;
    --font-size-h2: 40px;
    --font-size-h3: 28px;
    --font-size-body: 24px;
    --font-size-caption: 18px;
    --secondary-text: var(--muted-text);
    --panel-border: var(--border);
    --font-weight-normal: 400;
    --font-weight-medium: 500;
    --font-weight-semibold: 600;
    --font-weight-bold: 700;
    --spacing-gutter-pct: 0.07;
    --spacing-top-pct: 0.15;
    --spacing-bottom-pct: 0.07;
    --spacing-title-y-pct: 0.055;
    --accent-1: #60a5fa;
    --accent-2: #4ade80;
    --accent-3: #f97316;
    --accent-4: #a78bfa;
    --accent-5: #38bdf8;
    --accent-6: #94a3b8;
}
:root[data-theme="dark"] {
    --background: #0f172a;
    --panel: #1e293b;
    --primary-text: #f1f5f9;
    --muted-text: #94a3b8;
    --inverse-text: #0f172a;
    --border: #334155;
    --shadow-color: #000000;
    --icon-pad-bg: #1e293b;
    --art-glow: #7dd3fc;
    --art-glow-opacity: 0.18;
    --art-sheen: #ffffff;
    --art-sheen-opacity: 0.18;
    --art-shadow: #000000;
    --art-shadow-opacity: 0.28;
    --art-muted-line: #64748b;
    --art-panel-tint: #1e293b;
    --accent-1: #60a5fa;
    --accent-2: #4ade80;
    --accent-3: #f97316;
    --accent-4: #a78bfa;
    --accent-5: #38bdf8;
    --accent-6: #94a3b8;
}
:root[data-theme="light"] {
    --background: #f8fafc;
    --panel: #ffffff;
    --primary-text: #0f172a;
    --muted-text: #64748b;
    --inverse-text: #ffffff;
    --border: #e2e8f0;
    --shadow-color: #000000;
    --icon-pad-bg: #1e293b;
    --art-glow: #0891b2;
    --art-glow-opacity: 0.10;
    --art-sheen: #ffffff;
    --art-sheen-opacity: 0.34;
    --art-shadow: #0f172a;
    --art-shadow-opacity: 0.14;
    --art-muted-line: #94a3b8;
    --art-panel-tint: #f1f5f9;
    --accent-1: #2563eb;
    --accent-2: #16a34a;
    --accent-3: #ea580c;
    --accent-4: #7c3aed;
    --accent-5: #0284c7;
    --accent-6: #475569;
}</style>
  <rect x="0" y="0" width="1.92E+3" height="1.08E+3" fill="#252a34" stroke="none" id="programmatic_background"/>
  <line id="HEADER_DECOR" x1="960.0" x2="1080.0" y1="135.0" y2="135.0" stroke="var(--accent-1)" stroke-width="6" stroke-linecap="round"/>
  <defs>
    <pattern id="svg17b8b2cf-napkin-hatch" patternUnits="userSpaceOnUse" width="12" height="12">
      <path d="M -3 12 L 12 -3 M 0 15 L 15 0" fill="none" stroke="var(--primary-text)" stroke-width="1" stroke-opacity="0.04"/>
    </pattern>
    <filter id="svg17b8b2cf-soft-shadow" x="-30%" y="-30%" width="160%" height="160%">
      <feDropShadow dx="0" dy="4" stdDeviation="8" flood-color="#000000" flood-opacity="0.18"/>
    </filter>
    <radialGradient id="svg17b8b2cf-universal-edge-vignette" cx="50%" cy="50%" r="72%">
      <stop offset="0%" stop-color="var(--background)" stop-opacity="0"/>
      <stop offset="72%" stop-color="var(--background)" stop-opacity="0.12"/>
      <stop offset="100%" stop-color="var(--primary-text)" stop-opacity="0.08"/>
    </radialGradient>
    <linearGradient id="svg17b8b2cf-universal-surface-sheen" x1="0%" y1="0%" x2="100%" y2="100%">
      <stop offset="0%" stop-color="var(--art-sheen)" stop-opacity="var(--art-sheen-opacity)"/>
      <stop offset="46%" stop-color="var(--art-sheen)" stop-opacity="0.035"/>
      <stop offset="100%" stop-color="var(--art-panel-tint)" stop-opacity="0.14"/>
    </linearGradient>
    <radialGradient id="svg17b8b2cf-universal-icon-aura" cx="50%" cy="42%" r="64%">
      <stop offset="0%" stop-color="var(--art-glow)" stop-opacity="var(--art-glow-opacity)"/>
      <stop offset="100%" stop-color="var(--background)" stop-opacity="0"/>
    </radialGradient>
    <linearGradient id="svg17b8b2cf-tug-rope-sheen" x1="0%" y1="0%" x2="100%" y2="0%">
      <stop offset="0%" stop-color="var(--background)" stop-opacity="0"/>
      <stop offset="50%" stop-color="var(--inverse-text)" stop-opacity="0.16"/>
      <stop offset="100%" stop-color="var(--background)" stop-opacity="0"/>
    </linearGradient>
    <filter id="svg17b8b2cf-text-glow" x="-20%" y="-20%" width="140%" height="140%">
      <feDropShadow dx="0" dy="0" stdDeviation="2" flood-color="#000000" flood-opacity="0.4"/>
    </filter>
    <filter id="svg17b8b2cf-shadow" x="-30%" y="-30%" width="160%" height="160%">
      <feDropShadow dx="0" dy="2" stdDeviation="3" flood-color="#000000" flood-opacity="0.08"/>
      <feDropShadow dx="0" dy="6" stdDeviation="10" flood-color="#000000" flood-opacity="0.12"/>
    </filter>
    <marker id="svg17b8b2cf-arrowhead" markerWidth="10" markerHeight="7" refX="9" refY="3.5" orient="auto" markerUnits="strokeWidth">
      <polygon points="0 0, 10 3.5, 0 7" fill="var(--muted-text)" opacity="0.6"/>
    </marker>
  </defs>
  <rect id="CANVAS_BG" width="100%" height="100%" fill="var(--background)"/>
  <rect width="100%" height="100%" fill="url(#svg17b8b2cf-napkin-hatch)"/>
  <rect id="UNIVERSAL_EDGE_VIGNETTE" width="100%" height="100%" fill="url(#svg17b8b2cf-universal-edge-vignette)" opacity="0.62"/>
  <text id="TITLE" x="960.0" y="59" text-anchor="middle" font-size="56" font-weight="800" fill="#f1f5f9" style="font-size: 60px; font-family: Inter, Segoe UI, Kalam, Roboto, Helvetica, Arial, sans-serif; font-weight: 700; letter-spacing:-1.2px;" data-final-font-size="60">
    <tspan x="960.0" dy="68.00px">Consequences of Phantom Cases</tspan>
  </text>
  <rect id="TITLE_FRAME" x="134" y="59" width="1652" height="103" fill="none"/>
  <ellipse cx="960" cy="332" rx="236" ry="60" fill="var(--panel)" fill-opacity="0.48" opacity="0.32"/>
  <path d="M 170 322 Q 616 304 934 332" fill="none" stroke="var(--primary-text)" stroke-width="16" stroke-linecap="round" opacity="0.10"/>
  <path d="M 1750 322 Q 1304 304 986 332" fill="none" stroke="var(--primary-text)" stroke-width="16" stroke-linecap="round" opacity="0.10"/>
  <path d="M 210 322 Q 618 308 936 332" fill="none" stroke="var(--muted-text)" stroke-width="8" stroke-linecap="round" opacity="0.88"/>
  <path d="M 1710 322 Q 1302 308 984 332" fill="none" stroke="var(--muted-text)" stroke-width="8" stroke-linecap="round" opacity="0.88"/>
  <circle cx="960" cy="332" r="24" fill="var(--panel)" fill-opacity="0.94" stroke="var(--primary-text)" stroke-width="3"/>
  <path d="M 960 308 L 982 332 L 960 356 L 938 332 Z" fill="var(--primary-text)"/>
  <path d="M 960 356 L 960 666" fill="none" stroke="var(--primary-text)" stroke-width="12" stroke-linecap="round" opacity="0.10"/>
  <path d="M 960 356 L 960 666" fill="none" stroke="var(--muted-text)" stroke-width="6" stroke-linecap="round" opacity="0.78"/>
  <ellipse cx="960" cy="690" rx="236" ry="52" fill="var(--panel)" fill-opacity="0.42" opacity="0.28"/>
  <path d="M 170 690 Q 616 672 934 690" fill="none" stroke="var(--primary-text)" stroke-width="16" stroke-linecap="round" opacity="0.10"/>
  <path d="M 1750 690 Q 1304 672 986 690" fill="none" stroke="var(--primary-text)" stroke-width="16" stroke-linecap="round" opacity="0.10"/>
  <path d="M 210 690 Q 618 676 936 690" fill="none" stroke="var(--muted-text)" stroke-width="8" stroke-linecap="round" opacity="0.88"/>
  <path d="M 1710 690 Q 1302 676 984 690" fill="none" stroke="var(--muted-text)" stroke-width="8" stroke-linecap="round" opacity="0.88"/>
  <circle cx="960" cy="690" r="20" fill="var(--panel)" fill-opacity="0.94" stroke="var(--primary-text)" stroke-width="3"/>
  <path d="M 820 336 L 530 358" fill="none" stroke="var(--muted-text)" stroke-width="3" stroke-linecap="round" opacity="0.72"/>
  <circle cx="530" cy="358" r="6" fill="var(--accent-1)"/>
  <g transform="translate(410, 388)" filter="url(#svg17b8b2cf-soft-shadow)">
    <path d="M 58 0 L 90 -28 L 136 -28 Q 146 -28 152 -18 L 162 0 Z" fill="var(--panel)" fill-opacity="0.95" stroke="var(--accent-1)" stroke-width="3"/>
    <rect id="ITEM_1_BG" x="-205" y="0" width="410" height="338" rx="24" fill="var(--panel)" fill-opacity="0.96" stroke="var(--accent-1)" stroke-width="3"/>
    <rect x="-176" y="14" width="324" height="8" rx="4" fill="var(--accent-1)" fill-opacity="0.42"/>
    <path d="M 72 28 L 176 28 L 150 312 L 82 312 Z" fill="var(--accent-1)" fill-opacity="0.07"/>
    <circle id="ITEM_1_PAD" cx="0" cy="78" r="42" fill="var(--icon-pad-bg)" stroke="var(--primary-text)" opacity="0.92" fill-opacity="0.9" stroke-width="2"/>
    <circle id="ITEM_1_PAD_INNER" cx="0" cy="78" r="32.76" fill="var(--accent-6)" fill-opacity="0.22"/>
    <circle cx="0" cy="78" r="32" fill="none" stroke="var(--accent-1)" stroke-width="2.25" stroke-dasharray="5 4" opacity="0.82"/>
    <g id="ITEM_1_ICON" transform="translate(-31, 46)" data-icon-size="62" stroke-dasharray="5 4">
      <g transform="translate(-4.5362711864406755,-4.5362711864406755) scale(2.9613559322033898)" vector-effect="non-scaling-stroke" stroke-width="2.46" stroke-linecap="round" stroke-linejoin="round" stroke-opacity="1.0">
        <path d="M12 6v6l4 2" vector-effect="non-scaling-stroke" fill="none" stroke="#f1f5f9"/>
        <circle cx="12" cy="12" r="10" vector-effect="non-scaling-stroke" fill="none" stroke="#f1f5f9"/>
      </g>
    </g>
    <text id="ITEM_1_HEAD" x="0.0" y="136.0" text-anchor="middle" font-size="38" font-weight="800" fill="var(--accent-6)" data-bg-id="ITEM_1_BG" data-max-lines="3" data-min-font-size="13" fill-opacity="1.0" stroke="none" style="font-size: 30px; font-family: Inter, Segoe UI, Kalam, Roboto, Helvetica, Arial, sans-serif; font-weight: 700; letter-spacing:-0.4px;" data-final-font-size="30">
      <tspan x="0.0" dy="41.25px">Resource Drain</tspan>
    </text>
    <rect id="ITEM_1_HEAD_FRAME" x="-166" y="136" width="332" height="66" fill="none"/>
    <text id="ITEM_1_BODY" x="0.0" y="202.0" text-anchor="middle" font-size="24" fill="var(--primary-text)" data-bg-id="ITEM_1_BG" style="font-size: 26px; font-family: Inter, Segoe UI, Kalam, Roboto, Helvetica, Arial, sans-serif; font-weight: 400;" data-final-font-size="26">
      <tspan x="0.0" dy="30.06px">Judges and counsel waste</tspan>
      <tspan x="0.0" dy="29.90px">time investigating fake</tspan>
      <tspan x="0.0" dy="29.90px">authorities</tspan>
    </text>
    <rect id="ITEM_1_BODY_FRAME" x="-178" y="202" width="356" height="136" fill="none"/>
  </g>
  <path d="M 960 356 L 960 360" fill="none" stroke="var(--muted-text)" stroke-width="3" stroke-linecap="round" opacity="0.72"/>
  <circle cx="960" cy="360" r="6" fill="var(--accent-2)"/>
  <g transform="translate(960, 390)" filter="url(#svg17b8b2cf-soft-shadow)">
    <path d="M -46 0 L -16 -28 L 16 -28 L 46 0 Z" fill="var(--panel)" fill-opacity="0.95" stroke="var(--accent-2)" stroke-width="3"/>
    <rect id="ITEM_2_BG" x="-205" y="0" width="410" height="338" rx="24" fill="var(--panel)" fill-opacity="0.96" stroke="var(--accent-2)" stroke-width="3"/>
    <rect x="-150" y="14" width="300" height="8" rx="4" fill="var(--accent-2)" fill-opacity="0.42"/>
    <path d="M -66 28 L 66 28 L 100 310 L -100 310 Z" fill="var(--accent-2)" fill-opacity="0.05"/>
    <circle id="ITEM_2_PAD" cx="0" cy="78" r="42" fill="var(--icon-pad-bg)" stroke="var(--primary-text)" opacity="0.92" fill-opacity="0.9" stroke-width="2"/>
    <circle id="ITEM_2_PAD_INNER" cx="0" cy="78" r="32.76" fill="var(--accent-1)" fill-opacity="0.22"/>
    <circle cx="0" cy="78" r="32" fill="none" stroke="var(--accent-2)" stroke-width="2.25" stroke-dasharray="5 4" opacity="0.82"/>
    <g id="ITEM_2_ICON" transform="translate(-31, 46)" data-icon-size="62" stroke-dasharray="5 4">
      <g transform="translate(-6.439999999999998,-6.439999999999998) scale(2.34)">
        <path d="M16 30C23.732 30 30 23.732 30 16C30 8.26801 23.732 2 16 2C8.26801 2 2 8.26801 2 16C2 23.732 8.26801 30 16 30Z" fill="#F9C23C"/>
        <path opacity="0.53" d="M27 16C27 22.0751 22.0751 27 16 27C9.92487 27 5 22.0751 5 16C5 9.92487 9.92487 5 16 5C22.0751 5 27 9.92487 27 16ZM22.32 19.89C22.25 19.67 22.04 19.52 21.81 19.52H21.84V11.76C22.27 11.48 22.35 10.79 21.83 10.48L16.44 7.22004C16.2 7.07004 15.9 7.07004 15.66 7.22004L10.26 10.48C9.74 10.79 9.82 11.48 10.24 11.76V19.53H10.13C9.89 19.53 9.68 19.69 9.62 19.92L9.27 21.17C9.17 21.51 9.43 21.85 9.78 21.85H22.23C22.58 21.84 22.84 21.49 22.73 21.14L22.32 19.89ZM11.9 11.88V19.52H13.56V11.88H11.9ZM15.21 11.88V19.52H16.9V11.88H15.21ZM18.56 11.88V19.52H20.18V11.88H18.56Z" fill="#D3883E"/>
      </g>
    </g>
    <text id="ITEM_2_HEAD" x="0.0" y="136.0" text-anchor="middle" font-size="38" font-weight="800" fill="var(--accent-1)" data-bg-id="ITEM_2_BG" data-max-lines="3" data-min-font-size="13" fill-opacity="1.0" stroke="none" style="font-size: 30px; font-family: Inter, Segoe UI, Kalam, Roboto, Helvetica, Arial, sans-serif; font-weight: 700; letter-spacing:-0.4px;" data-final-font-size="30">
      <tspan x="0.0" dy="41.25px">Cost Escalation</tspan>
    </text>
    <rect id="ITEM_2_HEAD_FRAME" x="-166" y="136" width="332" height="66" fill="none"/>
    <text id="ITEM_2_BODY" x="0.0" y="202.0" text-anchor="middle" font-size="24" fill="var(--primary-text)" data-bg-id="ITEM_2_BG" style="font-size: 26px; font-family: Inter, Segoe UI, Kalam, Roboto, Helvetica, Arial, sans-serif; font-weight: 400;" data-final-font-size="26">
      <tspan x="0.0" dy="36.04px">Litigation expenses increase</tspan>
      <tspan x="0.0" dy="29.90px">due to verification efforts</tspan>
    </text>
    <rect id="ITEM_2_BODY_FRAME" x="-178" y="202" width="356" height="136" fill="none"/>
  </g>
  <path d="M 1100 336 L 1390 358" fill="none" stroke="var(--muted-text)" stroke-width="3" stroke-linecap="round" opacity="0.72"/>
  <circle cx="1390" cy="358" r="6" fill="var(--accent-3)"/>
  <g transform="translate(1510, 388)" filter="url(#svg17b8b2cf-soft-shadow)">
    <path d="M -58 0 L -90 -28 L -136 -28 Q -146 -28 -152 -18 L -162 0 Z" fill="var(--panel)" fill-opacity="0.95" stroke="var(--accent-3)" stroke-width="3"/>
    <rect id="ITEM_3_BG" x="-205" y="0" width="410" height="338" rx="24" fill="var(--panel)" fill-opacity="0.96" stroke="var(--accent-3)" stroke-width="3"/>
    <rect x="-148" y="14" width="324" height="8" rx="4" fill="var(--accent-3)" fill-opacity="0.42"/>
    <path d="M -72 28 L -176 28 L -150 312 L -82 312 Z" fill="var(--accent-3)" fill-opacity="0.07"/>
    <circle id="ITEM_3_PAD" cx="0" cy="78" r="42" fill="var(--icon-pad-bg)" stroke="var(--primary-text)" opacity="0.92" fill-opacity="0.9" stroke-width="2"/>
    <circle id="ITEM_3_PAD_INNER" cx="0" cy="78" r="32.76" fill="var(--accent-2)" fill-opacity="0.22"/>
    <circle cx="0" cy="78" r="32" fill="none" stroke="var(--accent-3)" stroke-width="2.25" stroke-dasharray="5 4" opacity="0.82"/>
    <g id="ITEM_3_ICON" transform="translate(-31, 46)" data-icon-size="62" stroke-dasharray="5 4">
      <g transform="translate(-6.439999999999998,-6.439999999999998) scale(2.34)">
        <path d="M22.39 30H9.61C8.17 30 7 28.8271 7 27.3835V4.61654C7 3.17293 8.17 2 9.61 2H22.39C23.83 2 25 3.17293 25 4.61654V27.3835C25 28.8271 23.83 30 22.39 30Z" fill="black"/>
        <path d="M9.74454 15.5H22.2653C23.2223 15.5 24.0099 14.7056 23.9999 13.7401V4.75986C23.9999 3.78439 23.2223 3 22.2554 3H9.74454C8.77757 3 8 3.78439 8 4.75986V13.7401C8 14.7156 8.77757 15.5 9.74454 15.5Z" fill="#433B6B"/>
        <path d="M9.74454 29H22.2653C23.2223 29 24.0099 28.2056 23.9999 27.2401V18.2599C23.9999 17.2844 23.2223 16.5 22.2554 16.5H9.74454C8.77757 16.5 8 17.2844 8 18.2599V27.2401C8 28.2156 8.77757 29 9.74454 29Z" fill="#433B6B"/>
        <path d="M13.53 8.1H18.43C18.87 8.1 19.22 7.75 19.22 7.31V5.73C19.22 5.29 18.86 4.94 18.43 4.94H13.53C13.09 4.94 12.74 5.3 12.74 5.73V7.31C12.74 7.75 13.1 8.1 13.53 8.1Z" fill="#F4F4F4"/>
        <path d="M13.53 21.52H18.43C18.87 21.52 19.22 21.17 19.22 20.73V19.15C19.22 18.71 18.86 18.36 18.43 18.36H13.53C13.09 18.36 12.74 18.72 12.74 19.15V20.73C12.74 21.17 13.1 21.52 13.53 21.52Z" fill="#F4F4F4"/>
        <path d="M13.53 4.5672C12.881 4.5672 12.3672 5.09718 12.3672 5.73V7.31C12.3672 7.95895 12.8972 8.4728 13.53 8.4728H18.43C19.0759 8.4728 19.5928 7.95589 19.5928 7.31V5.73C19.5928 5.08104 19.0628 4.5672 18.43 4.5672H13.53ZM13.1128 5.73C13.1128 5.50282 13.2989 5.3128 13.53 5.3128H18.43C18.6572 5.3128 18.8472 5.49895 18.8472 5.73V7.31C18.8472 7.54411 18.6641 7.7272 18.43 7.7272H13.53C13.3028 7.7272 13.1128 7.54104 13.1128 7.31V5.73Z" fill="#8D65C5"/>
        <path d="M13.11 10.18C12.6958 10.18 12.36 10.5158 12.36 10.93C12.36 11.3442 12.6958 11.68 13.11 11.68H18.83C19.2442 11.68 19.58 11.3442 19.58 10.93C19.58 10.5158 19.2442 10.18 18.83 10.18H13.11Z" fill="#8D65C5"/>
        <path d="M12.3672 19.15C12.3672 18.5172 12.881 17.9872 13.53 17.9872H18.43C19.0628 17.9872 19.5928 18.501 19.5928 19.15V20.73C19.5928 21.3759 19.0759 21.8928 18.43 21.8928H13.53C12.8972 21.8928 12.3672 21.379 12.3672 20.73V19.15ZM13.53 18.7328C13.2989 18.7328 13.1128 18.9228 13.1128 19.15V20.73C13.1128 20.961 13.3028 21.1472 13.53 21.1472H18.43C18.6641 21.1472 18.8472 20.9641 18.8472 20.73V19.15C18.8472 18.919 18.6572 18.7328 18.43 18.7328H13.53Z" fill="#8D65C5"/>
        <path d="M13.11 23.6C12.6958 23.6 12.36 23.9358 12.36 24.35C12.36 24.7642 12.6958 25.1 13.11 25.1H18.83C19.2442 25.1 19.58 24.7642 19.58 24.35C19.58 23.9358 19.2442 23.6 18.83 23.6H13.11Z" fill="#8D65C5"/>
      </g>
    </g>
    <text id="ITEM_3_HEAD" x="0.0" y="136.0" text-anchor="middle" font-size="38" font-weight="800" fill="var(--accent-2)" data-bg-id="ITEM_3_BG" data-max-lines="3" data-min-font-size="13" fill-opacity="1.0" stroke="none" style="font-size: 30px; font-family: Inter, Segoe UI, Kalam, Roboto, Helvetica, Arial, sans-serif; font-weight: 700; letter-spacing:-0.4px;" data-final-font-size="30">
      <tspan x="0.0" dy="41.25px">Record Contamination</tspan>
    </text>
    <rect id="ITEM_3_HEAD_FRAME" x="-166" y="136" width="332" height="66" fill="none"/>
    <text id="ITEM_3_BODY" x="0.0" y="202.0" text-anchor="middle" font-size="24" fill="var(--primary-text)" data-bg-id="ITEM_3_BG" style="font-size: 26px; font-family: Inter, Segoe UI, Kalam, Roboto, Helvetica, Arial, sans-serif; font-weight: 400;" data-final-font-size="26">
      <tspan x="0.0" dy="36.04px">Court records become filled</tspan>
      <tspan x="0.0" dy="29.90px">with false references</tspan>
    </text>
    <rect id="ITEM_3_BODY_FRAME" x="-178" y="202" width="356" height="136" fill="none"/>
  </g>
  <path d="M 820 694 L 530 696" fill="none" stroke="var(--muted-text)" stroke-width="3" stroke-linecap="round" opacity="0.72"/>
  <circle cx="530" cy="696" r="6" fill="var(--accent-4)"/>
  <g transform="translate(410, 726)" filter="url(#svg17b8b2cf-soft-shadow)">
    <path d="M 58 0 L 90 -28 L 136 -28 Q 146 -28 152 -18 L 162 0 Z" fill="var(--panel)" fill-opacity="0.95" stroke="var(--accent-4)" stroke-width="3"/>
    <rect id="ITEM_4_BG" x="-205" y="0" width="410" height="338" rx="24" fill="var(--panel)" fill-opacity="0.96" stroke="var(--accent-4)" stroke-width="3"/>
    <rect x="-176" y="14" width="324" height="8" rx="4" fill="var(--accent-4)" fill-opacity="0.42"/>
    <path d="M 72 28 L 176 28 L 150 312 L 82 312 Z" fill="var(--accent-4)" fill-opacity="0.07"/>
    <circle id="ITEM_4_PAD" cx="0" cy="78" r="42" fill="var(--icon-pad-bg)" stroke="var(--primary-text)" opacity="0.92" fill-opacity="0.9" stroke-width="2"/>
    <circle id="ITEM_4_PAD_INNER" cx="0" cy="78" r="32.76" fill="var(--accent-3)" fill-opacity="0.22"/>
    <circle cx="0" cy="78" r="32" fill="none" stroke="var(--accent-4)" stroke-width="2.25" stroke-dasharray="5 4" opacity="0.82"/>
    <g id="ITEM_4_ICON" transform="translate(-31, 46)" data-icon-size="62" stroke-dasharray="5 4">
      <g transform="translate(-4.5362711864406755,-4.5362711864406755) scale(2.9613559322033898)" vector-effect="non-scaling-stroke" stroke-width="2.46" stroke-linecap="round" stroke-linejoin="round" stroke-opacity="1.0">
        <path d="M3.85 8.62a4 4 0 0 1 4.78-4.77 4 4 0 0 1 6.74 0 4 4 0 0 1 4.78 4.78 4 4 0 0 1 0 6.74 4 4 0 0 1-4.77 4.78 4 4 0 0 1-6.75 0 4 4 0 0 1-4.78-4.77 4 4 0 0 1 0-6.76Z" vector-effect="non-scaling-stroke" fill="none" stroke="#f1f5f9"/>
      </g>
    </g>
    <text id="ITEM_4_HEAD" x="0.0" y="136.0" text-anchor="middle" font-size="38" font-weight="800" fill="var(--accent-3)" data-bg-id="ITEM_4_BG" data-max-lines="3" data-min-font-size="13" fill-opacity="1.0" stroke="none" style="font-size: 30px; font-family: Inter, Segoe UI, Kalam, Roboto, Helvetica, Arial, sans-serif; font-weight: 700; letter-spacing:-0.4px;" data-final-font-size="30">
      <tspan x="0.0" dy="41.25px">Professional Sanctions</tspan>
    </text>
    <rect id="ITEM_4_HEAD_FRAME" x="-166" y="136" width="332" height="66" fill="none"/>
    <text id="ITEM_4_BODY" x="0.0" y="202.0" text-anchor="middle" font-size="24" fill="var(--primary-text)" data-bg-id="ITEM_4_BG" style="font-size: 26px; font-family: Inter, Segoe UI, Kalam, Roboto, Helvetica, Arial, sans-serif; font-weight: 400;" data-final-font-size="26">
      <tspan x="0.0" dy="30.06px">Lawyers face disciplinary</tspan>
      <tspan x="0.0" dy="29.90px">action and</tspan>
      <tspan x="0.0" dy="29.90px">reputational damage</tspan>
    </text>
    <rect id="ITEM_4_BODY_FRAME" x="-178" y="202" width="356" height="136" fill="none"/>
  </g>
  <path d="M 960 710 L 960 698" fill="none" stroke="var(--muted-text)" stroke-width="3" stroke-linecap="round" opacity="0.72"/>
  <circle cx="960" cy="698" r="6" fill="var(--accent-5)"/>
  <g transform="translate(960, 728)" filter="url(#svg17b8b2cf-soft-shadow)">
    <path d="M -46 0 L -16 -28 L 16 -28 L 46 0 Z" fill="var(--panel)" fill-opacity="0.95" stroke="var(--accent-5)" stroke-width="3"/>
    <rect id="ITEM_5_BG" x="-205" y="0" width="410" height="338" rx="24" fill="var(--panel)" fill-opacity="0.96" stroke="var(--accent-5)" stroke-width="3"/>
    <rect x="-150" y="14" width="300" height="8" rx="4" fill="var(--accent-5)" fill-opacity="0.42"/>
    <path d="M -66 28 L 66 28 L 100 310 L -100 310 Z" fill="var(--accent-5)" fill-opacity="0.05"/>
    <circle id="ITEM_5_PAD" cx="0" cy="78" r="42" fill="var(--icon-pad-bg)" stroke="var(--primary-text)" opacity="0.92" fill-opacity="0.9" stroke-width="2"/>
    <circle id="ITEM_5_PAD_INNER" cx="0" cy="78" r="32.76" fill="var(--accent-4)" fill-opacity="0.22"/>
    <circle cx="0" cy="78" r="32" fill="none" stroke="var(--accent-5)" stroke-width="2.25" stroke-dasharray="5 4" opacity="0.82"/>
    <g id="ITEM_5_ICON" transform="translate(-31, 46)" data-icon-size="62" stroke-dasharray="5 4">
      <g transform="translate(-4.536271186440677,-4.5362711864406755) scale(2.9613559322033898)" vector-effect="non-scaling-stroke" stroke-width="2.46" stroke-linecap="round" stroke-linejoin="round" stroke-opacity="1.0">
        <path d="M12 10h.01" vector-effect="non-scaling-stroke" fill="none" stroke="#f1f5f9"/>
        <path d="M12 14h.01" vector-effect="non-scaling-stroke" fill="none" stroke="#f1f5f9"/>
        <path d="M12 6h.01" vector-effect="non-scaling-stroke" fill="none" stroke="#f1f5f9"/>
        <path d="M16 10h.01" vector-effect="non-scaling-stroke" fill="none" stroke="#f1f5f9"/>
        <path d="M16 14h.01" vector-effect="non-scaling-stroke" fill="none" stroke="#f1f5f9"/>
        <path d="M16 6h.01" vector-effect="non-scaling-stroke" fill="none" stroke="#f1f5f9"/>
        <path d="M8 10h.01" vector-effect="non-scaling-stroke" fill="none" stroke="#f1f5f9"/>
        <path d="M8 14h.01" vector-effect="non-scaling-stroke" fill="none" stroke="#f1f5f9"/>
        <path d="M8 6h.01" vector-effect="non-scaling-stroke" fill="none" stroke="#f1f5f9"/>
        <path d="M9 22v-3a1 1 0 0 1 1-1h4a1 1 0 0 1 1 1v3" vector-effect="non-scaling-stroke" fill="none" stroke="#f1f5f9"/>
        <rect x="4" y="2" width="16" height="20" rx="2" vector-effect="non-scaling-stroke" fill="none" stroke="#f1f5f9"/>
      </g>
    </g>
    <text id="ITEM_5_HEAD" x="0.0" y="136.0" text-anchor="middle" font-size="38" font-weight="800" fill="var(--accent-4)" data-bg-id="ITEM_5_BG" data-max-lines="3" data-min-font-size="13" fill-opacity="1.0" stroke="none" style="font-size: 30px; font-family: Inter, Segoe UI, Kalam, Roboto, Helvetica, Arial, sans-serif; font-weight: 700; letter-spacing:-0.4px;" data-final-font-size="30">
      <tspan x="0.0" dy="41.25px">Trust Erosion</tspan>
    </text>
    <rect id="ITEM_5_HEAD_FRAME" x="-166" y="136" width="332" height="66" fill="none"/>
    <text id="ITEM_5_BODY" x="0.0" y="202.0" text-anchor="middle" font-size="24" fill="var(--primary-text)" data-bg-id="ITEM_5_BG" style="font-size: 26px; font-family: Inter, Segoe UI, Kalam, Roboto, Helvetica, Arial, sans-serif; font-weight: 400;" data-final-font-size="26">
      <tspan x="0.0" dy="36.04px">Public confidence in legal</tspan>
      <tspan x="0.0" dy="29.90px">filings may be weakened</tspan>
    </text>
    <rect id="ITEM_5_BODY_FRAME" x="-178" y="202" width="356" height="136" fill="none"/>
  </g>
  <path d="M 1100 694 L 1390 696" fill="none" stroke="var(--muted-text)" stroke-width="3" stroke-linecap="round" opacity="0.72"/>
  <circle cx="1390" cy="696" r="6" fill="var(--accent-6)"/>
  <g transform="translate(1510, 726)" filter="url(#svg17b8b2cf-soft-shadow)">
    <path d="M -58 0 L -90 -28 L -136 -28 Q -146 -28 -152 -18 L -162 0 Z" fill="var(--panel)" fill-opacity="0.95" stroke="var(--accent-6)" stroke-width="3"/>
    <rect id="ITEM_6_BG" x="-205" y="0" width="410" height="338" rx="24" fill="var(--panel)" fill-opacity="0.96" stroke="var(--accent-6)" stroke-width="3"/>
    <rect x="-148" y="14" width="324" height="8" rx="4" fill="var(--accent-6)" fill-opacity="0.42"/>
    <path d="M -72 28 L -176 28 L -150 312 L -82 312 Z" fill="var(--accent-6)" fill-opacity="0.07"/>
    <circle id="ITEM_6_PAD" cx="0" cy="78" r="42" fill="var(--icon-pad-bg)" stroke="var(--primary-text)" opacity="0.92" fill-opacity="0.9" stroke-width="2"/>
    <circle id="ITEM_6_PAD_INNER" cx="0" cy="78" r="32.76" fill="var(--accent-5)" fill-opacity="0.22"/>
    <circle cx="0" cy="78" r="32" fill="none" stroke="var(--accent-6)" stroke-width="2.25" stroke-dasharray="5 4" opacity="0.82"/>
    <g id="ITEM_6_ICON" transform="translate(-31, 46)" data-icon-size="62" stroke-dasharray="5 4">
      <g transform="translate(-5.238938053097343,-6.978407079646016) scale(2.31929203539823)">
        <path d="M3.27393 28.0227C3.46919 27.8274 3.78578 27.8274 3.98104 28.0227C4.1763 28.2179 4.1763 28.5345 3.98104 28.7298L2.56683 30.144C2.37156 30.3392 2.05498 30.3392 1.85972 30.144C1.66446 29.9487 1.66446 29.6321 1.85972 29.4369L3.27393 28.0227Z" fill="#402A32"/>
        <path d="M27.9001 8.10118C28.1994 7.95818 28.48 7.7627 28.7279 7.51475C29.8995 6.34318 29.8995 4.44369 28.7279 3.27211C27.5563 2.10054 25.6569 2.10054 24.4853 3.27211C24.2373 3.52006 24.0418 3.80062 23.8989 4.09998L23.7782 3.97928L13.5691 12.1405C13.5691 13.3175 12.5867 14.2613 11.4102 14.2259L11.3453 14.2909C11.1201 14.516 10.917 14.7621 10.7387 15.0258L3.62561 25.546L4.57008 27.5017L6.45404 28.3745L16.9743 21.2614C17.238 21.083 17.4841 20.8799 17.7092 20.6548L17.7785 20.5855L17.7879 20.2879C17.8223 19.1986 18.7607 18.3595 19.8471 18.4465L28.0208 8.22192L27.9001 8.10118Z" fill="#0074BA"/>
        <path d="M29.435 8.2218L24.4853 3.27209L23.7782 3.9792L28.7279 8.92892L23.4246 14.2322C23.2294 14.4275 23.2294 14.7441 23.4246 14.9393C23.6199 15.1346 23.9365 15.1346 24.1317 14.9393L29.435 9.63602C29.8256 9.24549 29.8256 8.61233 29.435 8.2218Z" fill="#F9C23C"/>
        <path d="M11.4038 14.2323L13.2026 12.4335L13.5611 12.1469L19.8531 18.439L19.5665 18.7975L17.7677 20.5963L11.4038 14.2323Z" fill="#F9C23C"/>
        <path d="M6.45225 28.3762L3.62382 25.5477L3.27027 25.9013C2.48922 26.6823 2.48922 27.9487 3.27027 28.7297C4.05131 29.5108 5.31764 29.5108 6.09869 28.7297L6.45225 28.3762Z" fill="#F9C23C"/>
      </g>
    </g>
    <text id="ITEM_6_HEAD" x="0.0" y="136.0" text-anchor="middle" font-size="38" font-weight="800" fill="var(--accent-5)" data-bg-id="ITEM_6_BG" data-max-lines="3" data-min-font-size="13" fill-opacity="1.0" stroke="none" style="font-size: 30px; font-family: Inter, Segoe UI, Kalam, Roboto, Helvetica, Arial, sans-serif; font-weight: 700; letter-spacing:-0.4px;" data-final-font-size="30">
      <tspan x="0.0" dy="41.25px">Regulatory Reform</tspan>
    </text>
    <rect id="ITEM_6_HEAD_FRAME" x="-166" y="136" width="332" height="66" fill="none"/>
    <text id="ITEM_6_BODY" x="0.0" y="202.0" text-anchor="middle" font-size="24" fill="var(--primary-text)" data-bg-id="ITEM_6_BG" style="font-size: 26px; font-family: Inter, Segoe UI, Kalam, Roboto, Helvetica, Arial, sans-serif; font-weight: 400;" data-final-font-size="26">
      <tspan x="0.0" dy="36.04px">Judiciary discusses rules</tspan>
      <tspan x="0.0" dy="29.90px">to curb fake AI filings</tspan>
    </text>
    <rect id="ITEM_6_BODY_FRAME" x="-178" y="202" width="356" height="136" fill="none"/>
  </g>
</svg>
