<?xml version='1.0' encoding='utf-8'?>
<svg xmlns="http://www.w3.org/2000/svg" width="1920" height="1080" viewBox="0 0 1920 1080" data-theme="light">
  <style>
        @font-face {
            font-family: 'Inter';
            src: url('assets/fonts/Inter-Regular.ttf') format('truetype');
            font-weight: 400;
            font-style: normal;
            font-display: swap;
        }
        @font-face {
            font-family: 'Inter';
            src: url('assets/fonts/Inter-Bold.ttf') format('truetype');
            font-weight: 600;
            font-style: normal;
            font-display: swap;
        }
        @font-face {
            font-family: 'Inter';
            src: url('assets/fonts/Inter-Bold.ttf') format('truetype');
            font-weight: 800;
            font-style: normal;
            font-display: swap;
        }
        
:root {
    --background: #f8fafc;
    --panel: #ffffff;
    --primary-text: #0f172a;
    --muted-text: #64748b;
    --inverse-text: #ffffff;
    --border: #e2e8f0;
    --shadow-color: #000000;
    --icon-pad-bg: #1e293b;
    --art-glow: #0891b2;
    --art-glow-opacity: 0.10;
    --art-sheen: #ffffff;
    --art-sheen-opacity: 0.34;
    --art-shadow: #0f172a;
    --art-shadow-opacity: 0.14;
    --art-muted-line: #94a3b8;
    --art-panel-tint: #f1f5f9;
    --font-family: 'Inter', 'Segoe UI', 'Kalam', Roboto, Helvetica, Arial, sans-serif;
    --radius-xl: 16px;
    --font-family-headline: 'Inter', 'Segoe UI', 'Kalam', Roboto, Helvetica, Arial, sans-serif;
    --font-family-body: 'Inter', 'Segoe UI', 'Kalam', Roboto, Helvetica, Arial, sans-serif;
    --font-heading: 'Inter', 'Segoe UI', 'Kalam', Roboto, Helvetica, Arial, sans-serif;
    --font-body: 'Inter', 'Segoe UI', 'Kalam', Roboto, Helvetica, Arial, sans-serif;
    --font-size-h1: 56px;
    --font-size-h2: 40px;
    --font-size-h3: 28px;
    --font-size-body: 24px;
    --font-size-caption: 18px;
    --secondary-text: var(--muted-text);
    --panel-border: var(--border);
    --font-weight-normal: 400;
    --font-weight-medium: 500;
    --font-weight-semibold: 600;
    --font-weight-bold: 700;
    --spacing-gutter-pct: 0.07;
    --spacing-top-pct: 0.15;
    --spacing-bottom-pct: 0.07;
    --spacing-title-y-pct: 0.055;
    --accent-1: #d97706;
    --accent-2: #ea580c;
    --accent-3: #dc2626;
    --accent-4: #65a30d;
    --accent-5: #16a34a;
    --accent-6: #92400e;
}
:root[data-theme="dark"] {
    --background: #0f172a;
    --panel: #1e293b;
    --primary-text: #f1f5f9;
    --muted-text: #94a3b8;
    --inverse-text: #0f172a;
    --border: #334155;
    --shadow-color: #000000;
    --icon-pad-bg: #1e293b;
    --art-glow: #7dd3fc;
    --art-glow-opacity: 0.18;
    --art-sheen: #ffffff;
    --art-sheen-opacity: 0.18;
    --art-shadow: #000000;
    --art-shadow-opacity: 0.28;
    --art-muted-line: #64748b;
    --art-panel-tint: #1e293b;
    --accent-1: #fbbf24;
    --accent-2: #fb923c;
    --accent-3: #f87171;
    --accent-4: #a3e635;
    --accent-5: #4ade80;
    --accent-6: #d4a574;
}
:root[data-theme="light"] {
    --background: #f8fafc;
    --panel: #ffffff;
    --primary-text: #0f172a;
    --muted-text: #64748b;
    --inverse-text: #ffffff;
    --border: #e2e8f0;
    --shadow-color: #000000;
    --icon-pad-bg: #1e293b;
    --art-glow: #0891b2;
    --art-glow-opacity: 0.10;
    --art-sheen: #ffffff;
    --art-sheen-opacity: 0.34;
    --art-shadow: #0f172a;
    --art-shadow-opacity: 0.14;
    --art-muted-line: #94a3b8;
    --art-panel-tint: #f1f5f9;
    --accent-1: #d97706;
    --accent-2: #ea580c;
    --accent-3: #dc2626;
    --accent-4: #65a30d;
    --accent-5: #16a34a;
    --accent-6: #92400e;
}</style>
  <rect x="0" y="0" width="1.92E+3" height="1.08E+3" fill="#252a34" stroke="none" id="programmatic_background"/>
  <line id="HEADER_DECOR" x1="960.0" x2="1080.0" y1="105.0" y2="105.0" stroke="var(--accent-1)" stroke-width="6" stroke-linecap="round"/>
  <defs>
    <pattern id="svg9dfd6c09-napkin-hatch" patternUnits="userSpaceOnUse" width="12" height="12">
      <path d="M -3 12 L 12 -3 M 0 15 L 15 0" fill="none" stroke="var(--primary-text)" stroke-width="1" stroke-opacity="0.05"/>
    </pattern>
    <filter id="svg9dfd6c09-shadow" x="-30%" y="-30%" width="160%" height="160%">
      <feDropShadow dx="0" dy="3" stdDeviation="6" flood-color="#000000" flood-opacity="0.10"/>
      <feDropShadow dx="0" dy="8" stdDeviation="12" flood-color="#000000" flood-opacity="0.16"/>
    </filter>
    <radialGradient id="svg9dfd6c09-universal-edge-vignette" cx="50%" cy="50%" r="72%">
      <stop offset="0%" stop-color="var(--background)" stop-opacity="0"/>
      <stop offset="72%" stop-color="var(--background)" stop-opacity="0.12"/>
      <stop offset="100%" stop-color="var(--primary-text)" stop-opacity="0.08"/>
    </radialGradient>
    <linearGradient id="svg9dfd6c09-universal-surface-sheen" x1="0%" y1="0%" x2="100%" y2="100%">
      <stop offset="0%" stop-color="var(--art-sheen)" stop-opacity="var(--art-sheen-opacity)"/>
      <stop offset="46%" stop-color="var(--art-sheen)" stop-opacity="0.035"/>
      <stop offset="100%" stop-color="var(--art-panel-tint)" stop-opacity="0.14"/>
    </linearGradient>
    <radialGradient id="svg9dfd6c09-universal-icon-aura" cx="50%" cy="42%" r="64%">
      <stop offset="0%" stop-color="var(--art-glow)" stop-opacity="var(--art-glow-opacity)"/>
      <stop offset="100%" stop-color="var(--background)" stop-opacity="0"/>
    </radialGradient>
    <linearGradient id="svg9dfd6c09-card-panel-sheen" x1="0%" y1="0%" x2="100%" y2="100%">
      <stop offset="0%" stop-color="var(--inverse-text)" stop-opacity="0.20"/>
      <stop offset="48%" stop-color="var(--inverse-text)" stop-opacity="0.04"/>
      <stop offset="100%" stop-color="var(--background)" stop-opacity="0.16"/>
    </linearGradient>
    <radialGradient id="svg9dfd6c09-card-icon-glow" cx="50%" cy="35%" r="62%">
      <stop offset="0%" stop-color="var(--inverse-text)" stop-opacity="0.22"/>
      <stop offset="100%" stop-color="var(--background)" stop-opacity="0"/>
    </radialGradient>
    <filter id="svg9dfd6c09-text-glow" x="-20%" y="-20%" width="140%" height="140%">
      <feDropShadow dx="0" dy="0" stdDeviation="2" flood-color="#000000" flood-opacity="0.4"/>
    </filter>
    <marker id="svg9dfd6c09-arrowhead" markerWidth="10" markerHeight="7" refX="9" refY="3.5" orient="auto" markerUnits="strokeWidth">
      <polygon points="0 0, 10 3.5, 0 7" fill="var(--muted-text)" opacity="0.6"/>
    </marker>
  </defs>
  <rect width="100%" height="100%" fill="var(--background)" id="CANVAS_BG"/>
  <rect width="100%" height="100%" fill="url(#svg9dfd6c09-napkin-hatch)"/>
  <rect id="UNIVERSAL_EDGE_VIGNETTE" width="100%" height="100%" fill="url(#svg9dfd6c09-universal-edge-vignette)" opacity="0.62"/>
  <text id="TITLE" x="960.0" y="59" font-size="54" font-weight="800" fill="#0f172a" text-anchor="middle" style="font-size: 60px; font-family: Inter, Segoe UI, Kalam, Roboto, Helvetica, Arial, sans-serif; font-weight: 700; letter-spacing:-1.2px;" data-final-font-size="60">
    <tspan x="960.0" dy="68.00px">Anatomy of a Generative Draft</tspan>
  </text>
  <rect id="TITLE_FRAME" x="134" y="35" width="1652" height="78" fill="none"/>
  <rect x="120" y="150" width="1680" height="830" rx="40" fill="var(--panel)" fill-opacity="0.24" stroke="var(--muted-text)" stroke-width="2" opacity="0.94"/>
  <g id="DIAGRAM_MAIN">
    <g filter="url(#svg9dfd6c09-shadow)">
      <rect id="ITEM_1_BG" x="170" y="180" width="480" height="388" rx="28" fill="var(--panel)" fill-opacity="0.98" stroke="var(--accent-1)" stroke-width="3"/>
      <rect x="170" y="180" width="480" height="18" rx="9" fill="var(--accent-1)" fill-opacity="0.55"/>
      <rect x="295" y="216" width="230" height="30" rx="15" fill="var(--accent-1)" fill-opacity="0.10"/>
      <circle id="ITEM_1_PAD" cx="410" cy="262" r="54" fill="var(--icon-pad-bg)" opacity="0.95" fill-opacity="0.9" stroke-width="2" stroke="var(--primary-text)"/>
      <circle id="ITEM_1_PAD_INNER" cx="410" cy="262" r="42.12" fill="var(--accent-2)" fill-opacity="0.22"/>
      <circle cx="410" cy="262" r="42" fill="none" stroke="var(--accent-1)" stroke-width="3" stroke-dasharray="6 4"/>
      <g id="ITEM_1_ICON" transform="translate(373, 225)" data-icon-size="74">
        <g transform="translate(-11.137142857142862,-12.641428571428577) scale(3.008571428571429)">
          <path d="M22.5247 17.94C26.6502 17.94 29.9947 14.5956 29.9947 10.47C29.9947 6.34443 26.6502 3 22.5247 3C18.3991 3 15.0547 6.34443 15.0547 10.47C15.0547 14.5956 18.3991 17.94 22.5247 17.94Z" fill="#533566"/>
          <path d="M2.64445 29.2101C1.81445 28.3301 1.78446 26.9601 2.56446 26.0401L15.1045 11.3401L21.2145 17.8201L5.80445 29.4801C4.84445 30.2101 3.47445 30.0901 2.64445 29.2101Z" fill="#9B9B9B"/>
          <path d="M18.9958 4.00515L28.9358 14.5552C29.5958 15.2552 29.5658 16.3552 28.8658 17.0051C28.1658 17.6651 27.0758 17.6352 26.4158 16.9352L16.4758 6.38515C15.8158 5.68515 15.8458 4.59517 16.5458 3.93517C17.2458 3.27517 18.3358 3.30515 18.9958 4.00515ZM15.4146 18.5302C15.4146 19.342 14.7565 20.0002 13.9446 20.0002C13.1328 20.0002 12.4746 19.342 12.4746 18.5302C12.4746 17.7183 13.1328 17.0602 13.9446 17.0602C14.7565 17.0602 15.4146 17.7183 15.4146 18.5302Z" fill="#BEBEBE"/>
        </g>
      </g>
      <text id="ITEM_1_HEAD" x="410.0" y="328.0" font-weight="800" font-size="28" fill="var(--primary-text)" text-anchor="middle" data-bg-id="ITEM_1_BG" fill-opacity="1.0" style="font-size: 30px; font-family: Inter, Segoe UI, Kalam, Roboto, Helvetica, Arial, sans-serif; font-weight: 700; letter-spacing:-0.4px;" data-final-font-size="30">
        <tspan x="410.0" dy="42.97px">Initial Prompt</tspan>
      </text>
      <rect id="ITEM_1_HEAD_FRAME" x="230" y="328" width="360" height="56" fill="none"/>
      <text id="ITEM_1_BODY" x="410.0" y="378.0" font-size="18" fill="var(--primary-text)" text-anchor="middle" data-bg-id="ITEM_1_BG" style="font-size: 26px; font-family: Inter, Segoe UI, Kalam, Roboto, Helvetica, Arial, sans-serif; font-weight: 400;" data-final-font-size="26">
        <tspan x="410.0" dy="47.53px">User provides instructions for a</tspan>
        <tspan x="410.0" dy="29.90px">specific creative task</tspan>
      </text>
      <rect id="ITEM_1_BODY_FRAME" x="195" y="378" width="430" height="156" fill="none"/>
    </g>
    <g filter="url(#svg9dfd6c09-shadow)">
      <rect id="ITEM_2_BG" x="720" y="180" width="480" height="388" rx="28" fill="var(--panel)" fill-opacity="0.98" stroke="var(--accent-2)" stroke-width="3"/>
      <rect x="720" y="180" width="480" height="18" rx="9" fill="var(--accent-2)" fill-opacity="0.55"/>
      <rect x="845" y="216" width="230" height="30" rx="15" fill="var(--accent-2)" fill-opacity="0.10"/>
      <circle id="ITEM_2_PAD" cx="960" cy="262" r="54" fill="var(--icon-pad-bg)" opacity="0.95" fill-opacity="0.9" stroke-width="2" stroke="var(--primary-text)"/>
      <circle id="ITEM_2_PAD_INNER" cx="960" cy="262" r="42.12" fill="var(--accent-3)" fill-opacity="0.22"/>
      <circle cx="960" cy="262" r="42" fill="none" stroke="var(--accent-2)" stroke-width="3" stroke-dasharray="6 4"/>
      <g id="ITEM_2_ICON" transform="translate(923, 225)" data-icon-size="74">
        <g transform="translate(-11.137142857142862,-8.128571428571433) scale(0.3760714285714286)" vector-effect="non-scaling-stroke" stroke-width="2.60" stroke-linecap="round" stroke-linejoin="round" stroke-opacity="1.0">
          <path d="M24,176V64A24,24,0,0,1,48,40H64V152H48a24,24,0,0,0,0,48H232V64H64" fill="none" stroke="#f1f5f9" vector-effect="non-scaling-stroke"/>
          <line x1="128" y1="96" x2="128" y2="160" fill="none" stroke="#f1f5f9" vector-effect="non-scaling-stroke"/>
          <line x1="168" y1="96" x2="168" y2="160" fill="none" stroke="#f1f5f9" vector-effect="non-scaling-stroke"/>
          <line x1="104" y1="112" x2="192" y2="112" fill="none" stroke="#f1f5f9" vector-effect="non-scaling-stroke"/>
          <line x1="104" y1="144" x2="192" y2="144" fill="none" stroke="#f1f5f9" vector-effect="non-scaling-stroke"/>
        </g>
      </g>
      <text id="ITEM_2_HEAD" x="960.0" y="328.0" font-weight="800" font-size="28" fill="var(--accent-3)" text-anchor="middle" data-bg-id="ITEM_2_BG" fill-opacity="1.0" style="font-size: 30px; font-family: Inter, Segoe UI, Kalam, Roboto, Helvetica, Arial, sans-serif; font-weight: 700; letter-spacing:-0.4px;" data-final-font-size="30">
        <tspan x="960.0" dy="42.97px">Draft Generation</tspan>
      </text>
      <rect id="ITEM_2_HEAD_FRAME" x="780" y="328" width="360" height="56" fill="none"/>
      <text id="ITEM_2_BODY" x="960.0" y="378.0" font-size="18" fill="var(--primary-text)" text-anchor="middle" data-bg-id="ITEM_2_BG" style="font-size: 26px; font-family: Inter, Segoe UI, Kalam, Roboto, Helvetica, Arial, sans-serif; font-weight: 400;" data-final-font-size="26">
        <tspan x="960.0" dy="47.53px">AI produces a usable but unfinished</tspan>
        <tspan x="960.0" dy="29.90px">piece of content</tspan>
      </text>
      <rect id="ITEM_2_BODY_FRAME" x="745" y="378" width="430" height="156" fill="none"/>
    </g>
    <g filter="url(#svg9dfd6c09-shadow)">
      <rect id="ITEM_3_BG" x="1270" y="180" width="480" height="388" rx="28" fill="var(--panel)" fill-opacity="0.98" stroke="var(--accent-3)" stroke-width="3"/>
      <rect x="1270" y="180" width="480" height="18" rx="9" fill="var(--accent-3)" fill-opacity="0.55"/>
      <rect x="1395" y="216" width="230" height="30" rx="15" fill="var(--accent-3)" fill-opacity="0.10"/>
      <circle id="ITEM_3_PAD" cx="1510" cy="262" r="54" fill="var(--icon-pad-bg)" opacity="0.95" fill-opacity="0.9" stroke-width="2" stroke="var(--primary-text)"/>
      <circle id="ITEM_3_PAD_INNER" cx="1510" cy="262" r="42.12" fill="var(--accent-4)" fill-opacity="0.22"/>
      <circle cx="1510" cy="262" r="42" fill="none" stroke="var(--accent-3)" stroke-width="3" stroke-dasharray="6 4"/>
      <g id="ITEM_3_ICON" transform="translate(1473, 225)" data-icon-size="74">
        <g transform="translate(-8.024827586206902,-8.751034482758627) scale(2.904827586206897)">
          <path d="M16.6352 7.58545L21.1451 10.1198L23.7063 14.6565L9.36953 28.9933L4.50768 26.4228L2.29846 21.9222L16.6352 7.58545Z" fill="#FF822D"/>
          <path d="M1.3895 28.0652L1.97165 29.377L3.22663 29.9024L9.35704 28.9771L2.31475 21.9348L1.3895 28.0652Z" fill="#FFCE7C"/>
          <path d="M1.06291 30.2289L1.38948 28.0652L3.22659 29.9023L1.06291 30.2289Z" fill="#402A32"/>
          <path d="M22.2761 1.94443C23.0572 1.16338 24.3235 1.16338 25.1045 1.94443L29.3472 6.18707C30.1282 6.96812 30.1282 8.23445 29.3472 9.0155L25.8117 12.551L21.2845 10.2869L18.7406 5.47996L22.2761 1.94443Z" fill="#F92F60"/>
          <path d="M18.7406 5.47998L25.8117 12.551L23.6903 14.6724L16.6193 7.6013L18.7406 5.47998Z" fill="#D3D3D3"/>
        </g>
      </g>
      <text id="ITEM_3_HEAD" x="1510.0" y="328.0" font-weight="800" font-size="28" fill="var(--primary-text)" text-anchor="middle" data-bg-id="ITEM_3_BG" fill-opacity="1.0" style="font-size: 30px; font-family: Inter, Segoe UI, Kalam, Roboto, Helvetica, Arial, sans-serif; font-weight: 700; letter-spacing:-0.4px;" data-final-font-size="30">
        <tspan x="1510.0" dy="42.97px">Iterative Revision</tspan>
      </text>
      <rect id="ITEM_3_HEAD_FRAME" x="1330" y="328" width="360" height="56" fill="none"/>
      <text id="ITEM_3_BODY" x="1510.0" y="378.0" font-size="18" fill="var(--primary-text)" text-anchor="middle" data-bg-id="ITEM_3_BG" style="font-size: 26px; font-family: Inter, Segoe UI, Kalam, Roboto, Helvetica, Arial, sans-serif; font-weight: 400;" data-final-font-size="26">
        <tspan x="1510.0" dy="47.53px">User requests specific changes</tspan>
        <tspan x="1510.0" dy="29.90px">or expands on sections</tspan>
      </text>
      <rect id="ITEM_3_BODY_FRAME" x="1295" y="378" width="430" height="156" fill="none"/>
    </g>
    <g filter="url(#svg9dfd6c09-shadow)">
      <rect id="ITEM_4_BG" x="260" y="580" width="660" height="370" rx="30" fill="var(--panel)" fill-opacity="0.98" stroke="var(--accent-4)" stroke-width="3"/>
      <rect x="260" y="590" width="660" height="18" rx="9" fill="var(--accent-4)" fill-opacity="0.55"/>
      <rect x="430" y="628" width="320" height="32" rx="16" fill="var(--accent-4)" fill-opacity="0.10"/>
      <circle id="ITEM_4_PAD" cx="590" cy="684" r="54" fill="var(--icon-pad-bg)" opacity="0.95" fill-opacity="0.9" stroke-width="2" stroke="var(--primary-text)"/>
      <circle id="ITEM_4_PAD_INNER" cx="590" cy="684" r="42.12" fill="var(--accent-5)" fill-opacity="0.22"/>
      <circle cx="590" cy="684" r="42" fill="none" stroke="var(--accent-4)" stroke-width="3" stroke-dasharray="6 4"/>
      <g id="ITEM_4_ICON" transform="translate(551, 645)" data-icon-size="78">
        <g transform="translate(-6.689491525423733,-6.689491525423733) scale(3.8074576271186444)" vector-effect="non-scaling-stroke" stroke-width="2.65" stroke-linecap="round" stroke-linejoin="round" stroke-opacity="1.0">
          <path d="M15.39 4.39a1 1 0 0 0 1.68-.474 2.5 2.5 0 1 1 3.014 3.015 1 1 0 0 0-.474 1.68l1.683 1.682a2.414 2.414 0 0 1 0 3.414L19.61 15.39a1 1 0 0 1-1.68-.474 2.5 2.5 0 1 0-3.014 3.015 1 1 0 0 1 .474 1.68l-1.683 1.682a2.414 2.414 0 0 1-3.414 0L8.61 19.61a1 1 0 0 0-1.68.474 2.5 2.5 0 1 1-3.014-3.015 1 1 0 0 0 .474-1.68l-1.683-1.682a2.414 2.414 0 0 1 0-3.414L4.39 8.61a1 1 0 0 1 1.68.474 2.5 2.5 0 1 0 3.014-3.015 1 1 0 0 1-.474-1.68l1.683-1.682a2.414 2.414 0 0 1 3.414 0z" vector-effect="non-scaling-stroke" fill="none" stroke="#f1f5f9"/>
        </g>
      </g>
      <text id="ITEM_4_HEAD" x="590.0" y="754.0" font-weight="800" font-size="30" fill="var(--primary-text)" text-anchor="middle" data-bg-id="ITEM_4_BG" fill-opacity="1.0" style="font-size: 30px; font-family: Inter, Segoe UI, Kalam, Roboto, Helvetica, Arial, sans-serif; font-weight: 700; letter-spacing:-0.4px;" data-final-font-size="30">
        <tspan x="590.0" dy="44.21px">Final Synthesis</tspan>
      </text>
      <rect id="ITEM_4_HEAD_FRAME" x="380" y="754" width="420" height="58" fill="none"/>
      <text id="ITEM_4_BODY" x="595.0" y="798.0" font-size="18" fill="var(--primary-text)" text-anchor="middle" data-bg-id="ITEM_4_BG" style="font-size: 26px; font-family: Inter, Segoe UI, Kalam, Roboto, Helvetica, Arial, sans-serif; font-weight: 400;" data-final-font-size="26">
        <tspan x="595.0" dy="45.54px">Human and machine work combine into a</tspan>
        <tspan x="595.0" dy="29.90px">final product</tspan>
      </text>
      <rect id="ITEM_4_BODY_FRAME" x="360" y="798" width="470" height="148" fill="none"/>
    </g>
    <g filter="url(#svg9dfd6c09-shadow)">
      <rect id="ITEM_5_BG" x="1000" y="580" width="660" height="370" rx="30" fill="var(--panel)" fill-opacity="0.98" stroke="var(--accent-5)" stroke-width="3"/>
      <rect x="1000" y="590" width="660" height="18" rx="9" fill="var(--accent-5)" fill-opacity="0.55"/>
      <rect x="1170" y="628" width="320" height="32" rx="16" fill="var(--accent-5)" fill-opacity="0.10"/>
      <circle id="ITEM_5_PAD" cx="1330" cy="684" r="54" fill="var(--icon-pad-bg)" opacity="0.95" fill-opacity="0.9" stroke-width="2" stroke="var(--primary-text)"/>
      <circle id="ITEM_5_PAD_INNER" cx="1330" cy="684" r="42.12" fill="var(--accent-6)" fill-opacity="0.22"/>
      <circle cx="1330" cy="684" r="42" fill="none" stroke="var(--accent-5)" stroke-width="3" stroke-dasharray="6 4"/>
      <g id="ITEM_5_ICON" transform="translate(1291, 645)" data-icon-size="78">
        <g transform="translate(-9.137142857142862,-8.385000000000005) scale(3.008571428571429)">
          <path d="M25.0642 23.4047L23.9155 20.598L22.2011 21.2996L23.3511 24.1097L23.3525 24.113C23.5183 24.5137 23.3281 24.9545 22.9426 25.1096L18.0368 27.1219L18.0342 27.123C17.6335 27.2888 17.1927 27.0987 17.0376 26.7132L15.8855 23.898L14.1711 24.5997L15.3202 27.4074C15.8659 28.7594 17.403 29.3881 18.741 28.8353L18.7425 28.8347L23.6372 26.8268C24.9889 26.281 25.6173 24.7444 25.065 23.4066L25.0642 23.4047ZM8 23.5L9.70824 26.7789C10.3282 27.4289 10.2982 28.4589 9.63824 29.0689C8.98824 29.6789 7.95824 29.6489 7.34824 28.9989L2.43824 23.7889C1.82824 23.1389 1.85824 22.1089 2.50824 21.4989C3.15824 20.8889 4.18824 20.9189 4.79824 21.5689L8 23.5Z" fill="#FFB02E"/>
          <path d="M29.2283 15.0788L17.6783 2.82884C16.4083 1.47884 14.1783 1.82887 13.3883 3.50887L4.79834 21.5689L9.76834 26.8389L28.3083 19.3288C30.0183 18.6388 30.4983 16.4288 29.2283 15.0788Z" fill="#F9C23C"/>
        </g>
      </g>
      <text id="ITEM_5_HEAD" x="1330.0" y="754.0" font-weight="800" font-size="30" fill="var(--accent-6)" text-anchor="middle" data-bg-id="ITEM_5_BG" fill-opacity="1.0" style="font-size: 30px; font-family: Inter, Segoe UI, Kalam, Roboto, Helvetica, Arial, sans-serif; font-weight: 700; letter-spacing:-0.4px;" data-final-font-size="30">
        <tspan x="1330.0" dy="44.21px">Public Publication</tspan>
      </text>
      <rect id="ITEM_5_HEAD_FRAME" x="1120" y="754" width="420" height="58" fill="none"/>
      <text id="ITEM_5_BODY" x="1335.0" y="798.0" font-size="18" fill="var(--primary-text)" text-anchor="middle" data-bg-id="ITEM_5_BG" style="font-size: 26px; font-family: Inter, Segoe UI, Kalam, Roboto, Helvetica, Arial, sans-serif; font-weight: 400;" data-final-font-size="26">
        <tspan x="1335.0" dy="45.54px">The finished artifact is shared</tspan>
        <tspan x="1335.0" dy="29.90px">or published externally</tspan>
      </text>
      <rect id="ITEM_5_BODY_FRAME" x="1100" y="798" width="470" height="148" fill="none"/>
    </g>
  </g>
</svg>
