<?xml version='1.0' encoding='utf-8'?>
<svg xmlns="http://www.w3.org/2000/svg" width="1920" height="1080" viewBox="0 0 1920 1080" data-theme="light">
  <style>
        @font-face {
            font-family: 'Inter';
            src: url('assets/fonts/Inter-Regular.ttf') format('truetype');
            font-weight: 400;
            font-style: normal;
            font-display: swap;
        }
        @font-face {
            font-family: 'Inter';
            src: url('assets/fonts/Inter-Bold.ttf') format('truetype');
            font-weight: 600;
            font-style: normal;
            font-display: swap;
        }
        @font-face {
            font-family: 'Inter';
            src: url('assets/fonts/Inter-Bold.ttf') format('truetype');
            font-weight: 800;
            font-style: normal;
            font-display: swap;
        }
        
:root {
    --background: #f8fafc;
    --panel: #ffffff;
    --primary-text: #0f172a;
    --muted-text: #64748b;
    --inverse-text: #ffffff;
    --border: #e2e8f0;
    --shadow-color: #000000;
    --icon-pad-bg: #1e293b;
    --art-glow: #0891b2;
    --art-glow-opacity: 0.10;
    --art-sheen: #ffffff;
    --art-sheen-opacity: 0.34;
    --art-shadow: #0f172a;
    --art-shadow-opacity: 0.14;
    --art-muted-line: #94a3b8;
    --art-panel-tint: #f1f5f9;
    --font-family: 'Inter', 'Segoe UI', 'Kalam', Roboto, Helvetica, Arial, sans-serif;
    --radius-xl: 16px;
    --font-family-headline: 'Inter', 'Segoe UI', 'Kalam', Roboto, Helvetica, Arial, sans-serif;
    --font-family-body: 'Inter', 'Segoe UI', 'Kalam', Roboto, Helvetica, Arial, sans-serif;
    --font-heading: 'Inter', 'Segoe UI', 'Kalam', Roboto, Helvetica, Arial, sans-serif;
    --font-body: 'Inter', 'Segoe UI', 'Kalam', Roboto, Helvetica, Arial, sans-serif;
    --font-size-h1: 56px;
    --font-size-h2: 40px;
    --font-size-h3: 28px;
    --font-size-body: 24px;
    --font-size-caption: 18px;
    --secondary-text: var(--muted-text);
    --panel-border: var(--border);
    --font-weight-normal: 400;
    --font-weight-medium: 500;
    --font-weight-semibold: 600;
    --font-weight-bold: 700;
    --spacing-gutter-pct: 0.07;
    --spacing-top-pct: 0.15;
    --spacing-bottom-pct: 0.07;
    --spacing-title-y-pct: 0.055;
    --accent-1: #3b82f6;
    --accent-2: #22c55e;
    --accent-3: #f59e0b;
    --accent-4: #ec4899;
    --accent-5: #8b5cf6;
    --accent-6: #06b6d4;
}
:root[data-theme="dark"] {
    --background: #0f172a;
    --panel: #1e293b;
    --primary-text: #f1f5f9;
    --muted-text: #94a3b8;
    --inverse-text: #0f172a;
    --border: #334155;
    --shadow-color: #000000;
    --icon-pad-bg: #1e293b;
    --art-glow: #7dd3fc;
    --art-glow-opacity: 0.18;
    --art-sheen: #ffffff;
    --art-sheen-opacity: 0.18;
    --art-shadow: #000000;
    --art-shadow-opacity: 0.28;
    --art-muted-line: #64748b;
    --art-panel-tint: #1e293b;
    --accent-1: #93c5fd;
    --accent-2: #86efac;
    --accent-3: #fcd34d;
    --accent-4: #f9a8d4;
    --accent-5: #c4b5fd;
    --accent-6: #a5f3fc;
}
:root[data-theme="light"] {
    --background: #f8fafc;
    --panel: #ffffff;
    --primary-text: #0f172a;
    --muted-text: #64748b;
    --inverse-text: #ffffff;
    --border: #e2e8f0;
    --shadow-color: #000000;
    --icon-pad-bg: #1e293b;
    --art-glow: #0891b2;
    --art-glow-opacity: 0.10;
    --art-sheen: #ffffff;
    --art-sheen-opacity: 0.34;
    --art-shadow: #0f172a;
    --art-shadow-opacity: 0.14;
    --art-muted-line: #94a3b8;
    --art-panel-tint: #f1f5f9;
    --accent-1: #3b82f6;
    --accent-2: #22c55e;
    --accent-3: #f59e0b;
    --accent-4: #ec4899;
    --accent-5: #8b5cf6;
    --accent-6: #06b6d4;
}</style>
  <rect x="0" y="0" width="1.92E+3" height="1.08E+3" fill="#252a34" stroke="none" id="programmatic_background"/>
  <line id="HEADER_DECOR" x1="960.0" x2="1080.0" y1="135.0" y2="135.0" stroke="var(--accent-1)" stroke-width="6" stroke-linecap="round"/>
  <defs>
    <pattern id="svgd1122588-napkin-hatch" patternUnits="userSpaceOnUse" width="12" height="12">
      <path d="M -3 12 L 12 -3 M 0 15 L 15 0" fill="none" stroke="var(--primary-text)" stroke-width="1" stroke-opacity="0.05"/>
    </pattern>
    <filter id="svgd1122588-shadow" x="-30%" y="-30%" width="160%" height="160%">
      <feDropShadow dx="0" dy="2" stdDeviation="3" flood-color="#000000" flood-opacity="0.08"/>
      <feDropShadow dx="0" dy="6" stdDeviation="10" flood-color="#000000" flood-opacity="0.12"/>
    </filter>
    <marker id="svgd1122588-arrowhead" markerWidth="10" markerHeight="10" refX="9" refY="5" orient="auto">
      <path d="M 0 0 L 10 5 L 0 10 Z" fill="var(--accent-1)"/>
    </marker>
    <filter id="svgd1122588-text-glow" x="-20%" y="-20%" width="140%" height="140%">
      <feDropShadow dx="0" dy="0" stdDeviation="2" flood-color="#000000" flood-opacity="0.4"/>
    </filter>
    <radialGradient id="svgd1122588-universal-edge-vignette" cx="50%" cy="50%" r="72%">
      <stop offset="0%" stop-color="var(--background)" stop-opacity="0"/>
      <stop offset="72%" stop-color="var(--background)" stop-opacity="0.12"/>
      <stop offset="100%" stop-color="var(--primary-text)" stop-opacity="0.08"/>
    </radialGradient>
    <linearGradient id="svgd1122588-universal-surface-sheen" x1="0%" y1="0%" x2="100%" y2="100%">
      <stop offset="0%" stop-color="var(--art-sheen)" stop-opacity="var(--art-sheen-opacity)"/>
      <stop offset="46%" stop-color="var(--art-sheen)" stop-opacity="0.035"/>
      <stop offset="100%" stop-color="var(--art-panel-tint)" stop-opacity="0.14"/>
    </linearGradient>
    <radialGradient id="svgd1122588-universal-icon-aura" cx="50%" cy="42%" r="64%">
      <stop offset="0%" stop-color="var(--art-glow)" stop-opacity="var(--art-glow-opacity)"/>
      <stop offset="100%" stop-color="var(--background)" stop-opacity="0"/>
    </radialGradient>
  </defs>
  <rect width="100%" height="100%" fill="var(--background)" id="CANVAS_BG"/>
  <rect width="100%" height="100%" fill="url(#svgd1122588-napkin-hatch)"/>
  <rect id="UNIVERSAL_EDGE_VIGNETTE" width="100%" height="100%" fill="url(#svgd1122588-universal-edge-vignette)" opacity="0.62"/>
  <text id="TITLE" x="960.0" y="59" text-anchor="middle" font-weight="700" font-size="72" fill="#0f172a" style="font-size: 60px; font-family: Inter, Segoe UI, Kalam, Roboto, Helvetica, Arial, sans-serif; font-weight: 700; letter-spacing:-1.2px;" data-final-font-size="60">
    <tspan x="960.0" dy="68.00px">Risks of Overstating Interpretability</tspan>
  </text>
  <rect id="TITLE_FRAME" x="134" y="59" width="1652" height="103" fill="none"/>
  <g id="DIAGRAM_SCALER" transform="translate(28.8, 27.0) scale(0.97)">
    <path d="M 960 360 L 960 450" stroke="var(--muted-text)" stroke-width="3.0" fill="none" opacity="0.52"/>
    <path d="M 160.0 450 L 1760.0 450" stroke="var(--muted-text)" stroke-width="3.0" fill="none" opacity="0.52"/>
    <path d="M 160.0 450 L 160.0 570" stroke="var(--muted-text)" stroke-width="3.0" fill="none" opacity="0.52"/>
    <path d="M 560.0 450 L 560.0 570" stroke="var(--muted-text)" stroke-width="3.0" fill="none" opacity="0.52"/>
    <path d="M 960.0 450 L 960.0 570" stroke="var(--muted-text)" stroke-width="3.0" fill="none" opacity="0.52"/>
    <path d="M 1360.0 450 L 1360.0 570" stroke="var(--muted-text)" stroke-width="3.0" fill="none" opacity="0.52"/>
    <path d="M 1760.0 450 L 1760.0 570" stroke="var(--muted-text)" stroke-width="3.0" fill="none" opacity="0.52"/>
    <g transform="translate(960.0, 270.0)">
      <rect id="ITEM_1_BG" x="-210" y="-90" width="420" height="180" rx="24" fill="var(--panel)" fill-opacity="0.86" stroke="var(--primary-text)" stroke-width="2.6"/>
      <circle id="ITEM_1_PAD" cx="0" cy="40" r="42" fill="var(--icon-pad-bg)" stroke="var(--primary-text)" opacity="0.9" fill-opacity="0.9" stroke-width="2"/>
      <circle id="ITEM_1_PAD_INNER" cx="0" cy="40" r="32.76" fill="var(--accent-6)" fill-opacity="0.22"/>
      <circle cx="0" cy="40" r="33.6" fill="none" stroke="var(--accent-1)" stroke-width="3" stroke-dasharray="6 4"/>
      <g id="ITEM_1_ICON" transform="translate(-36.0, 4.0)" data-icon-size="72">
        <g transform="translate(-4.7787610619469,-6.371681415929204) scale(3.398230088495575)" vector-effect="non-scaling-stroke" stroke-width="2.58" stroke-linecap="round" stroke-linejoin="round" stroke-opacity="1.0">
          <path d="M12 9v13" vector-effect="non-scaling-stroke" fill="none" stroke="#f1f5f9"/>
          <path d="M19 17.17l-5.98 4.485a1.7 1.7 0 0 1 -2.04 0l-5.98 -4.485a2.5 2.5 0 0 1 -1 -2v-11.17a1 1 0 0 1 1 -1h14a1 1 0 0 1 1 1v11.17a2.5 2.5 0 0 1 -1 2z" vector-effect="non-scaling-stroke" fill="none" stroke="#f1f5f9"/>
          <path d="M4.3 3.3l6.655 5.186a1.7 1.7 0 0 0 2.09 0l6.655 -5.186" vector-effect="non-scaling-stroke" fill="none" stroke="#f1f5f9"/>
        </g>
      </g>
      <text id="ITEM_1_HEAD" x="0.0" y="-80.0" text-anchor="middle" font-weight="bold" font-size="36" fill="var(--primary-text)" data-bg-id="ITEM_1_BG" fill-opacity="1.0" style="font-size: 30px; font-family: Inter, Segoe UI, Kalam, Roboto, Helvetica, Arial, sans-serif; font-weight: 700; letter-spacing:-0.4px;" data-final-font-size="30">
        <tspan x="0.0" dy="30.75px">Polysemantic Behavior</tspan>
      </text>
      <rect id="ITEM_1_HEAD_FRAME" x="-180" y="-80" width="360" height="45" fill="none"/>
    </g>
    <g transform="translate(160.0, 720)">
      <rect id="ITEM_2_BG" x="-150.0" y="-150" width="300" height="390" rx="24" fill="var(--accent-1)" fill-opacity="1.0" stroke="var(--accent-1)" stroke-width="2.6"/>
      <text id="ITEM_2_HEAD" x="0.0" y="12.0" text-anchor="middle" font-weight="bold" font-size="30" fill="var(--primary-text)" data-bg-id="ITEM_2_BG" fill-opacity="1.0" style="font-size: 28px; font-family: Inter, Segoe UI, Kalam, Roboto, Helvetica, Arial, sans-serif; font-weight: 700; letter-spacing:-0.4px;" data-final-font-size="28">
        <tspan x="0.0" dy="32.18px">Averaged Meanings</tspan>
      </text>
      <rect id="ITEM_2_HEAD_FRAME" x="-120.0" y="12" width="240" height="51.75" fill="none"/>
      <text id="ITEM_2_BODY" x="0.0" y="75.0" text-anchor="middle" font-size="23" fill="var(--primary-text)" opacity="0.94" data-bg-id="ITEM_2_BG" style="font-size: 26px; font-family: Inter, Segoe UI, Kalam, Roboto, Helvetica, Arial, sans-serif; font-weight: 400;" data-final-font-size="26">
        <tspan x="0.0" dy="32.52px">Synthetic images blend</tspan>
        <tspan x="0.0" dy="29.90px">different situations</tspan>
        <tspan x="0.0" dy="29.90px">into unrealistic hybrids</tspan>
      </text>
      <rect id="ITEM_2_BODY_FRAME" x="-152" y="75" width="304" height="148.3" fill="none" data-side-overflow-fix="38.0|38.0"/>
      <circle id="ITEM_2_PAD" cx="0" cy="-45.0" r="62" fill="var(--icon-pad-bg)" stroke="var(--background)" stroke-width="2" stroke-opacity="0.65" opacity="0.94" fill-opacity="0.9"/>
      <circle id="ITEM_2_PAD_INNER" cx="0" cy="-45.0" r="48.36" fill="var(--accent-1)" fill-opacity="0.22"/>
      <circle cx="0" cy="-45.0" r="49.6" fill="none" stroke="var(--accent-1)" stroke-width="3" stroke-dasharray="6 4"/>
      <g id="ITEM_2_ICON" transform="translate(-48.0, -93.0)" data-icon-size="96" stroke-dasharray="6 4">
        <g transform="translate(-9.315555555555555,-14.24111111111111) scale(4.776296296296296)" vector-effect="non-scaling-stroke" stroke-width="2.86" stroke-linecap="round" stroke-linejoin="round" stroke-opacity="1.0">
          <path d="M4 8h16a1 1 0 0 1 1 1v.5c0 1.5 -2.517 5.573 -4 6.5v1a1 1 0 0 1 -1 1h-8a1 1 0 0 1 -1 -1v-1c-1.687 -1.054 -4 -5 -4 -6.5v-.5a1 1 0 0 1 1 -1z" vector-effect="non-scaling-stroke" fill="none" stroke="#f1f5f9"/>
        </g>
      </g>
    </g>
    <g transform="translate(560.0, 720)">
      <rect id="ITEM_3_BG" x="-150.0" y="-150" width="300" height="390" rx="24" fill="var(--accent-2)" fill-opacity="1.0" stroke="var(--accent-2)" stroke-width="2.6"/>
      <text id="ITEM_3_HEAD" x="0.0" y="12.0" text-anchor="middle" font-weight="bold" font-size="30" fill="var(--primary-text)" data-bg-id="ITEM_3_BG" fill-opacity="1.0" style="font-size: 25px; font-family: Inter, Segoe UI, Kalam, Roboto, Helvetica, Arial, sans-serif; font-weight: 700; letter-spacing:-0.4px;" data-final-font-size="25">
        <tspan x="0.0" dy="31.50px">Visual Manipulation</tspan>
      </text>
      <rect id="ITEM_3_HEAD_FRAME" x="-120.0" y="12" width="240" height="51.75" fill="none"/>
      <text id="ITEM_3_BODY" x="0.0" y="75.0" text-anchor="middle" font-size="23" fill="var(--primary-text)" opacity="0.94" data-bg-id="ITEM_3_BG" style="font-size: 26px; font-family: Inter, Segoe UI, Kalam, Roboto, Helvetica, Arial, sans-serif; font-weight: 400;" data-final-font-size="26">
        <tspan x="0.0" dy="32.52px">Model representations</tspan>
        <tspan x="0.0" dy="29.90px">can be altered to change</tspan>
        <tspan x="0.0" dy="29.90px">visual explanations</tspan>
      </text>
      <rect id="ITEM_3_BODY_FRAME" x="-152" y="75" width="304" height="148.3" fill="none" data-side-overflow-fix="38.0|38.0"/>
      <circle id="ITEM_3_PAD" cx="0" cy="-45.0" r="62" fill="var(--icon-pad-bg)" stroke="var(--background)" stroke-width="2" stroke-opacity="0.65" opacity="0.94" fill-opacity="0.9"/>
      <circle id="ITEM_3_PAD_INNER" cx="0" cy="-45.0" r="48.36" fill="var(--accent-2)" fill-opacity="0.22"/>
      <circle cx="0" cy="-45.0" r="49.6" fill="none" stroke="var(--accent-2)" stroke-width="3" stroke-dasharray="6 4"/>
      <g id="ITEM_3_ICON" transform="translate(-48.0, -93.0)" data-icon-size="96" stroke-dasharray="6 4">
        <g transform="translate(-4.458305084745765,-4.45830508474577) scale(4.371525423728814)" vector-effect="non-scaling-stroke" stroke-width="2.86" stroke-linecap="round" stroke-linejoin="round" stroke-opacity="1.0">
          <path d="M20 13c0 5-3.5 7.5-7.66 8.95a1 1 0 0 1-.67-.01C7.5 20.5 4 18 4 13V6a1 1 0 0 1 1-1c2 0 4.5-1.2 6.24-2.72a1.17 1.17 0 0 1 1.52 0C14.51 3.81 17 5 19 5a1 1 0 0 1 1 1z" vector-effect="non-scaling-stroke" fill="none" stroke="#f1f5f9"/>
          <path d="M12 8v4" vector-effect="non-scaling-stroke" fill="none" stroke="#f1f5f9"/>
          <path d="M12 16h.01" vector-effect="non-scaling-stroke" fill="none" stroke="#f1f5f9"/>
        </g>
      </g>
    </g>
    <g transform="translate(960.0, 720)">
      <rect id="ITEM_4_BG" x="-150.0" y="-150" width="300" height="390" rx="24" fill="var(--accent-3)" fill-opacity="1.0" stroke="var(--accent-3)" stroke-width="2.6"/>
      <text id="ITEM_4_HEAD" x="0.0" y="12.0" text-anchor="middle" font-weight="bold" font-size="30" fill="var(--primary-text)" data-bg-id="ITEM_4_BG" fill-opacity="1.0" style="font-size: 22px; font-family: Inter, Segoe UI, Kalam, Roboto, Helvetica, Arial, sans-serif; font-weight: 700; letter-spacing:-0.4px;" data-final-font-size="22">
        <tspan x="0.0" dy="30.83px">Literal Interpretation</tspan>
      </text>
      <rect id="ITEM_4_HEAD_FRAME" x="-120.0" y="12" width="240" height="51.75" fill="none"/>
      <text id="ITEM_4_BODY" x="0.0" y="75.0" text-anchor="middle" font-size="23" fill="var(--primary-text)" opacity="0.94" data-bg-id="ITEM_4_BG" style="font-size: 26px; font-family: Inter, Segoe UI, Kalam, Roboto, Helvetica, Arial, sans-serif; font-weight: 400;" data-final-font-size="26">
        <tspan x="0.0" dy="32.52px">Clean patterns may give</tspan>
        <tspan x="0.0" dy="29.90px">false sense of simple</tspan>
        <tspan x="0.0" dy="29.90px">concepts</tspan>
      </text>
      <rect id="ITEM_4_BODY_FRAME" x="-152" y="75" width="304" height="148.3" fill="none" data-side-overflow-fix="38.0|38.0"/>
      <circle id="ITEM_4_PAD" cx="0" cy="-45.0" r="62" fill="var(--icon-pad-bg)" stroke="var(--background)" stroke-width="2" stroke-opacity="0.65" opacity="0.94" fill-opacity="0.9"/>
      <circle id="ITEM_4_PAD_INNER" cx="0" cy="-45.0" r="48.36" fill="var(--accent-3)" fill-opacity="0.22"/>
      <circle cx="0" cy="-45.0" r="49.6" fill="none" stroke="var(--accent-3)" stroke-width="3" stroke-dasharray="6 4"/>
      <g id="ITEM_4_ICON" transform="translate(-48.0, -93.0)" data-icon-size="96" stroke-dasharray="6 4">
        <g transform="translate(-4.458305084745762,-4.048474576271186) scale(0.20491525423728812)" vector-effect="non-scaling-stroke" fill="#f1f5f9" fill-opacity="1.0" stroke="none">
          <path fill="#f1f5f9" d="M269.594 138.188c-7.327.018-14.304 1.695-20.47 4.718c-12.33 6.046-21.537 16.877-26.874 29.344s-6.884 26.816-2.906 40.375s13.864 26.06 29.594 33.53l8.03-16.874c-11.386-5.406-17.107-13.144-19.687-21.936c-2.578-8.792-1.63-18.9 2.157-27.75c3.79-8.85 10.305-16.18 17.907-19.906c7.602-3.728 16.19-4.464 26.844.593l.25.126l.28.125l128.407 51.595c-2.868 3.738-5.47 7.785-7.813 12.063c-4.422 8.076-7.89 17.01-10.125 26.375c-11.192.072-23.21 2.372-34.843 9.406c-3.506-6.976-8.417-12.93-14.5-17.44c-8.036-5.955-17.907-9.28-28.594-9.75c-6.412-.28-13.118.456-19.906 2.314c-19.537 5.347-36.632 18.23-48.25 34.78l-140.438-68c-.158-.087-.31-.163-.47-.25c-9.61-5.25-19.48-7.61-28.842-7.56a53.2 53.2 0 0 0-16.375 2.655c-13.765 4.525-24.973 14.166-32.126 26.06c-7.153 11.896-10.38 26.294-7.344 40.407c3.035 14.114 12.633 27.52 28.813 36.532l9.093-16.345c-12.24-6.818-17.72-15.27-19.625-24.125c-1.903-8.854.075-18.547 5.064-26.844c4.99-8.297 12.877-14.958 21.937-17.937c9.062-2.98 19.295-2.647 30.782 3.75l.25.124l.25.094l139.907 67.78c-4.3 10.024-6.72 20.765-6.72 31.626c0 18.525 7.674 34.47 20.53 44c12.858 9.53 30.4 12.39 48.5 7.437c36.206-9.907 64.126-45.698 64.126-82.75q.001-4.01-.47-7.842c9.038-7.025 17.4-9.228 26.564-9.47a98 98 0 0 0-.156 5.094c0 17.794 4.827 32.91 14.375 42.938c9.546 10.03 24.624 13.654 38.717 8.188c14.094-5.467 25.31-17.586 33.375-32.313s12.97-32.332 12.97-50.125s-4.86-32.908-14.407-42.938c-5.967-6.268-14.09-10.042-22.78-10.656c-5.216-.368-10.623.42-15.908 2.47c-3.887 1.507-7.555 3.532-11 5.968L292.22 143.406c-.178-.084-.356-.137-.533-.22c-7.43-3.435-14.937-5.017-22.093-5zm183.344 69.468c4.232-.034 7.58 1.82 10.906 5.313c3.47 3.643 6.512 9.688 8.094 17.718c-4.87-3.297-10.882-4.063-17.407-1.532c-16.185 6.28-29.31 30.25-29.31 53.53c0 11.812 3.402 21.147 8.842 26.69c-5.652 1.042-9.74-.787-13.78-5.032c-5.067-5.322-9.25-15.75-9.25-30.03c0-14.284 4.106-29.197 10.656-41.158c6.55-11.96 15.542-20.69 23.75-23.875c2.05-.795 3.91-1.278 5.625-1.5c.642-.082 1.27-.12 1.875-.124zm-137.72 43.656c7.75.073 14.323 2.413 19.5 6.25c7.414 5.495 12.4 14.35 12.938 26.72c-7.126-10.86-20.657-15.814-36.187-11.563c-22.94 6.277-41.533 30.218-41.533 53.5c0 11.816 4.782 21.207 12.5 26.75c-6.89-.417-12.802-2.653-17.53-6.158c-7.856-5.82-12.97-15.418-12.97-28.968c0-27.1 23.337-57.328 50.344-64.72c3.377-.923 6.597-1.474 9.658-1.686a42 42 0 0 1 1.718-.094c.527-.016 1.046-.036 1.563-.03z" vector-effect="non-scaling-stroke" stroke="none"/>
        </g>
      </g>
    </g>
    <g transform="translate(1360.0, 720)">
      <rect id="ITEM_5_BG" x="-150.0" y="-150" width="300" height="390" rx="24" fill="var(--accent-4)" fill-opacity="1.0" stroke="var(--accent-4)" stroke-width="2.6"/>
      <text id="ITEM_5_HEAD" x="0.0" y="12.0" text-anchor="middle" font-weight="bold" font-size="30" fill="var(--primary-text)" data-bg-id="ITEM_5_BG" fill-opacity="1.0" style="font-size: 22px; font-family: Inter, Segoe UI, Kalam, Roboto, Helvetica, Arial, sans-serif; font-weight: 700; letter-spacing:-0.4px;" data-final-font-size="22">
        <tspan x="0.0" dy="18.18px">Distributed</tspan>
        <tspan x="0.0" dy="25.30px">Representations</tspan>
      </text>
      <rect id="ITEM_5_HEAD_FRAME" x="-120.0" y="12" width="240" height="51.75" fill="none"/>
      <text id="ITEM_5_BODY" x="0.0" y="75.0" text-anchor="middle" font-size="23" fill="var(--primary-text)" opacity="0.94" data-bg-id="ITEM_5_BG" style="font-size: 26px; font-family: Inter, Segoe UI, Kalam, Roboto, Helvetica, Arial, sans-serif; font-weight: 400;" data-final-font-size="26">
        <tspan x="0.0" dy="32.52px">Concepts are often</tspan>
        <tspan x="0.0" dy="29.90px">spread across many</tspan>
        <tspan x="0.0" dy="29.90px">different neurons</tspan>
      </text>
      <rect id="ITEM_5_BODY_FRAME" x="-152" y="75" width="304" height="148.3" fill="none" data-side-overflow-fix="38.0|38.0"/>
      <circle id="ITEM_5_PAD" cx="0" cy="-45.0" r="62" fill="var(--icon-pad-bg)" stroke="var(--background)" stroke-width="2" stroke-opacity="0.65" opacity="0.94" fill-opacity="0.9"/>
      <circle id="ITEM_5_PAD_INNER" cx="0" cy="-45.0" r="48.36" fill="var(--accent-4)" fill-opacity="0.22"/>
      <circle cx="0" cy="-45.0" r="49.6" fill="none" stroke="var(--accent-4)" stroke-width="3" stroke-dasharray="6 4"/>
      <g id="ITEM_5_ICON" transform="translate(-48.0, -93.0)" data-icon-size="96" stroke-dasharray="6 4">
        <g transform="translate(-0.35999999999999943,1.5290624999999949) scale(4.03)" vector-effect="non-scaling-stroke" fill="#f1f5f9" fill-opacity="1.0" stroke="none">
          <path fill="#f1f5f9" d="M8.4 18.2q.6.75.6 1.8c0 1.7-1.3 3-3 3s-3-1.3-3-3s1.3-3 3-3q.6 0 1.2.3l1.4-1.8c-.9-1-1.3-2.4-1.1-3.7l-2-.7c-.5.8-1.4 1.4-2.5 1.4c-1.7 0-3-1.3-3-3s1.3-3 3-3s3 1.3 3 3v.2l2 .7c.6-1.2 1.8-2.1 3.2-2.3V5.9C10 5.6 9 4.4 9 3c0-1.7 1.3-3 3-3s3 1.3 3 3c0 1.4-1 2.6-2.2 2.9v2.2c1.4.2 2.6 1.1 3.2 2.3l2-.7v-.2c0-1.7 1.3-3 3-3s3 1.3 3 3s-1.3 3-3 3c-1.1 0-2-.6-2.5-1.4l-2 .7c.2 1.3-.2 2.7-1.1 3.7l1.4 1.8q.6-.3 1.2-.3c1.7 0 3 1.3 3 3s-1.3 3-3 3s-3-1.3-3-3q0-1.05.6-1.8l-1.4-1.8c-1.4.8-3 .8-4.4 0z" vector-effect="non-scaling-stroke" stroke="none"/>
        </g>
      </g>
    </g>
    <g transform="translate(1760.0, 720)">
      <rect id="ITEM_6_BG" x="-150.0" y="-150" width="300" height="390" rx="24" fill="var(--accent-5)" fill-opacity="1.0" stroke="var(--accent-5)" stroke-width="2.6"/>
      <text id="ITEM_6_HEAD" x="0.0" y="12.0" text-anchor="middle" font-weight="bold" font-size="30" fill="var(--inverse-text)" data-bg-id="ITEM_6_BG" fill-opacity="1.0" style="font-size: 22px; font-family: Inter, Segoe UI, Kalam, Roboto, Helvetica, Arial, sans-serif; font-weight: 700; letter-spacing:-0.4px;" data-final-font-size="22">
        <tspan x="0.0" dy="18.18px">Incomplete</tspan>
        <tspan x="0.0" dy="25.30px">Explanations</tspan>
      </text>
      <rect id="ITEM_6_HEAD_FRAME" x="-120.0" y="12" width="240" height="51.75" fill="none"/>
      <text id="ITEM_6_BODY" x="0.0" y="75.0" text-anchor="middle" font-size="23" fill="var(--inverse-text)" opacity="0.94" data-bg-id="ITEM_6_BG" style="font-size: 26px; font-family: Inter, Segoe UI, Kalam, Roboto, Helvetica, Arial, sans-serif; font-weight: 400;" data-final-font-size="26">
        <tspan x="0.0" dy="32.52px">Attractive images may</tspan>
        <tspan x="0.0" dy="29.90px">omit how representations</tspan>
        <tspan x="0.0" dy="29.90px">operate in practice</tspan>
      </text>
      <rect id="ITEM_6_BODY_FRAME" x="-152" y="75" width="304" height="148.3" fill="none" data-side-overflow-fix="38.0|38.0"/>
      <circle id="ITEM_6_PAD" cx="0" cy="-45.0" r="62" fill="var(--icon-pad-bg)" stroke="var(--background)" stroke-width="2" stroke-opacity="0.65" opacity="0.94" fill-opacity="0.9"/>
      <circle id="ITEM_6_PAD_INNER" cx="0" cy="-45.0" r="48.36" fill="var(--accent-5)" fill-opacity="0.22"/>
      <circle cx="0" cy="-45.0" r="49.6" fill="none" stroke="var(--accent-5)" stroke-width="3" stroke-dasharray="6 4"/>
      <g id="ITEM_6_ICON" transform="translate(-48.0, -93.0)" data-icon-size="96" stroke-dasharray="6 4">
        <g transform="translate(-7.207433628318584,-10.203185840707969) scale(3.423716814159292)">
          <path d="M20 9L22 6H27V9H30V15L22 16L14 15L15.5646 9.43999C15.6335 9.17999 15.8696 9 16.1353 9H20Z" fill="#CDC4D6"/>
          <path d="M22 16H30V23L17 26L4 23L2.03838 17.2837C1.85708 16.6418 2.34056 16 3.01543 16H22Z" fill="#CDC4D6"/>
          <path d="M24.66 12.99H25.33C25.7 12.99 25.99 12.69 25.99 12.33V11.66C25.99 11.29 25.69 11 25.33 11H24.66C24.29 11 24 11.3 24 11.66V12.33C24 12.7 24.29 12.99 24.66 12.99Z" fill="#26EAFC"/>
          <path d="M4 23L5.801 29.2731C5.9204 29.7013 6.31841 30 6.76617 30H28.995C29.5522 30 30 29.5519 30 29.0043V23H4Z" fill="#CA0B4A"/>
          <path d="M21 11C21.54 11 22 11 22 12C22 12.9821 21.5563 12.99 21.0289 12.9995L21 13H14.5665L15.1242 11H21Z" fill="#00A6ED"/>
          <path d="M15.3362 21H14.6638C14.3017 21 14 20.6983 14 20.3362V19.6638C14 19.3017 14.2931 19 14.6638 19H15.3362C15.6983 19 16 19.2931 16 19.6638V20.3362C16 20.6983 15.7069 21 15.3362 21Z" fill="#00A6ED"/>
          <path d="M18.6638 21H19.3362C19.7069 21 20 20.6983 20 20.3362V19.6638C20 19.2931 19.6983 19 19.3362 19H18.6638C18.2931 19 18 19.3017 18 19.6638V20.3362C18 20.6983 18.2931 21 18.6638 21Z" fill="#00A6ED"/>
          <path d="M23.3362 21H22.6638C22.2931 21 22 20.6983 22 20.3362V19.6638C22 19.3017 22.2931 19 22.6638 19H23.3362C23.6983 19 24 19.2931 24 19.6638V20.3362C24 20.6983 23.7069 21 23.3362 21Z" fill="#00A6ED"/>
          <path d="M26.6638 21H27.3362C27.7069 21 28 20.6983 28 20.3362V19.6638C28 19.2931 27.6983 19 27.3362 19H26.6638C26.2931 19 26 19.3017 26 19.6638V20.3362C26 20.6983 26.2931 21 26.6638 21Z" fill="#00A6ED"/>
          <path d="M25.33 12.99H24.66C24.29 12.99 24 12.7 24 12.33V11.66C24 11.3 24.29 11 24.66 11H25.33C25.69 11 25.99 11.29 25.99 11.66V12.33C25.99 12.69 25.7 12.99 25.33 12.99Z" fill="#00A6ED"/>
          <path d="M30.01 27.6699C28.26 27.6699 28.26 28.7899 26.5 28.7899C24.75 28.7899 24.75 27.6699 22.99 27.6699C21.24 27.6699 21.24 28.7899 19.49 28.7899C17.74 28.7899 17.74 27.6699 15.99 27.6699C14.24 27.6699 14.24 28.7899 12.49 28.7899C10.74 28.7899 10.74 27.6699 8.99 27.6699C7.24 27.6699 7.24 28.7899 5.5 28.7899C3.75 28.7899 3.75 27.6699 2 27.6699V29.9899H30L30.01 27.6699Z" fill="#00A6ED"/>
          <path d="M26.5962 4C26.8077 4 26.9904 4.18091 26.9904 4.41206H27V6H22L22.6635 4.84422C22.9615 4.3216 23.5096 4 24.0962 4H26.5962Z" fill="#533566"/>
          <path d="M5 16H30V15H5.58C5.26 15 5 15.2626 5 15.5859V16Z" fill="#533566"/>
        </g>
      </g>
    </g>
  </g>
</svg>
