<?xml version='1.0' encoding='utf-8'?>
<svg xmlns="http://www.w3.org/2000/svg" width="1920" height="1080" viewBox="0 0 1920 1080" data-theme="dark">
  <style>
        @font-face {
            font-family: 'Inter';
            src: url('assets/fonts/Inter-Regular.ttf') format('truetype');
            font-weight: 400;
            font-style: normal;
            font-display: swap;
        }
        @font-face {
            font-family: 'Inter';
            src: url('assets/fonts/Inter-Bold.ttf') format('truetype');
            font-weight: 600;
            font-style: normal;
            font-display: swap;
        }
        @font-face {
            font-family: 'Inter';
            src: url('assets/fonts/Inter-Bold.ttf') format('truetype');
            font-weight: 800;
            font-style: normal;
            font-display: swap;
        }
        
:root {
    --background: #0f172a;
    --panel: #1e293b;
    --primary-text: #f1f5f9;
    --muted-text: #94a3b8;
    --inverse-text: #0f172a;
    --border: #334155;
    --shadow-color: #000000;
    --icon-pad-bg: #1e293b;
    --art-glow: #7dd3fc;
    --art-glow-opacity: 0.18;
    --art-sheen: #ffffff;
    --art-sheen-opacity: 0.18;
    --art-shadow: #000000;
    --art-shadow-opacity: 0.28;
    --art-muted-line: #64748b;
    --art-panel-tint: #1e293b;
    --font-family: 'Inter', 'Segoe UI', 'Kalam', Roboto, Helvetica, Arial, sans-serif;
    --radius-xl: 16px;
    --font-family-headline: 'Inter', 'Segoe UI', 'Kalam', Roboto, Helvetica, Arial, sans-serif;
    --font-family-body: 'Inter', 'Segoe UI', 'Kalam', Roboto, Helvetica, Arial, sans-serif;
    --font-heading: 'Inter', 'Segoe UI', 'Kalam', Roboto, Helvetica, Arial, sans-serif;
    --font-body: 'Inter', 'Segoe UI', 'Kalam', Roboto, Helvetica, Arial, sans-serif;
    --font-size-h1: 56px;
    --font-size-h2: 40px;
    --font-size-h3: 28px;
    --font-size-body: 24px;
    --font-size-caption: 18px;
    --secondary-text: var(--muted-text);
    --panel-border: var(--border);
    --font-weight-normal: 400;
    --font-weight-medium: 500;
    --font-weight-semibold: 600;
    --font-weight-bold: 700;
    --spacing-gutter-pct: 0.07;
    --spacing-top-pct: 0.15;
    --spacing-bottom-pct: 0.07;
    --spacing-title-y-pct: 0.055;
    --accent-1: #fbbf24;
    --accent-2: #fb923c;
    --accent-3: #f87171;
    --accent-4: #a3e635;
    --accent-5: #4ade80;
    --accent-6: #d4a574;
}
:root[data-theme="dark"] {
    --background: #0f172a;
    --panel: #1e293b;
    --primary-text: #f1f5f9;
    --muted-text: #94a3b8;
    --inverse-text: #0f172a;
    --border: #334155;
    --shadow-color: #000000;
    --icon-pad-bg: #1e293b;
    --art-glow: #7dd3fc;
    --art-glow-opacity: 0.18;
    --art-sheen: #ffffff;
    --art-sheen-opacity: 0.18;
    --art-shadow: #000000;
    --art-shadow-opacity: 0.28;
    --art-muted-line: #64748b;
    --art-panel-tint: #1e293b;
    --accent-1: #fbbf24;
    --accent-2: #fb923c;
    --accent-3: #f87171;
    --accent-4: #a3e635;
    --accent-5: #4ade80;
    --accent-6: #d4a574;
}
:root[data-theme="light"] {
    --background: #f8fafc;
    --panel: #ffffff;
    --primary-text: #0f172a;
    --muted-text: #64748b;
    --inverse-text: #ffffff;
    --border: #e2e8f0;
    --shadow-color: #000000;
    --icon-pad-bg: #1e293b;
    --art-glow: #0891b2;
    --art-glow-opacity: 0.10;
    --art-sheen: #ffffff;
    --art-sheen-opacity: 0.34;
    --art-shadow: #0f172a;
    --art-shadow-opacity: 0.14;
    --art-muted-line: #94a3b8;
    --art-panel-tint: #f1f5f9;
    --accent-1: #d97706;
    --accent-2: #ea580c;
    --accent-3: #dc2626;
    --accent-4: #65a30d;
    --accent-5: #16a34a;
    --accent-6: #92400e;
}</style>
  <rect x="0" y="0" width="1.92E+3" height="1.08E+3" fill="#252a34" stroke="none" id="programmatic_background"/>
  <line id="HEADER_DECOR" x1="960.0" x2="1080.0" y1="107.0" y2="107.0" stroke="var(--accent-1)" stroke-width="6" stroke-linecap="round"/>
  <defs>
    <pattern id="svg0bf58878-napkin-hatch" patternUnits="userSpaceOnUse" width="12" height="12">
      <path d="M -3 12 L 12 -3 M 0 15 L 15 0" fill="none" stroke="var(--primary-text)" stroke-width="1" stroke-opacity="0.05"/>
    </pattern>
    <filter id="svg0bf58878-shadow" x="-30%" y="-30%" width="160%" height="160%">
      <feDropShadow dx="0" dy="2" stdDeviation="3" flood-color="#000000" flood-opacity="0.08"/>
      <feDropShadow dx="0" dy="6" stdDeviation="10" flood-color="#000000" flood-opacity="0.12"/>
    </filter>
    <filter id="svg0bf58878-soft-glow" x="-40%" y="-40%" width="180%" height="180%">
      <feDropShadow dx="0" dy="0" stdDeviation="6" flood-color="#000000" flood-opacity="0.12"/>
    </filter>
    <radialGradient id="svg0bf58878-universal-edge-vignette" cx="50%" cy="50%" r="72%">
      <stop offset="0%" stop-color="var(--background)" stop-opacity="0"/>
      <stop offset="72%" stop-color="var(--background)" stop-opacity="0.12"/>
      <stop offset="100%" stop-color="var(--primary-text)" stop-opacity="0.08"/>
    </radialGradient>
    <linearGradient id="svg0bf58878-universal-surface-sheen" x1="0%" y1="0%" x2="100%" y2="100%">
      <stop offset="0%" stop-color="var(--art-sheen)" stop-opacity="var(--art-sheen-opacity)"/>
      <stop offset="46%" stop-color="var(--art-sheen)" stop-opacity="0.035"/>
      <stop offset="100%" stop-color="var(--art-panel-tint)" stop-opacity="0.14"/>
    </linearGradient>
    <radialGradient id="svg0bf58878-universal-icon-aura" cx="50%" cy="42%" r="64%">
      <stop offset="0%" stop-color="var(--art-glow)" stop-opacity="var(--art-glow-opacity)"/>
      <stop offset="100%" stop-color="var(--background)" stop-opacity="0"/>
    </radialGradient>
    <filter id="svg0bf58878-text-glow" x="-20%" y="-20%" width="140%" height="140%">
      <feDropShadow dx="0" dy="0" stdDeviation="2" flood-color="#000000" flood-opacity="0.4"/>
    </filter>
    <marker id="svg0bf58878-arrowhead" markerWidth="10" markerHeight="7" refX="9" refY="3.5" orient="auto" markerUnits="strokeWidth">
      <polygon points="0 0, 10 3.5, 0 7" fill="var(--muted-text)" opacity="0.6"/>
    </marker>
  </defs>
  <rect width="100%" height="100%" fill="var(--background)" id="CANVAS_BG"/>
  <rect width="100%" height="100%" fill="url(#svg0bf58878-napkin-hatch)"/>
  <rect id="UNIVERSAL_EDGE_VIGNETTE" width="100%" height="100%" fill="url(#svg0bf58878-universal-edge-vignette)" opacity="0.62"/>
  <text id="TITLE" x="960.0" y="59" text-anchor="middle" font-weight="800" font-size="58" fill="#f1f5f9" style="font-size: 60px; font-family: Inter, Segoe UI, Kalam, Roboto, Helvetica, Arial, sans-serif; font-weight: 700; letter-spacing:-1.2px;" data-final-font-size="60">
    <tspan x="960.0" dy="68.00px">Reviewer Questions for Population Fit</tspan>
  </text>
  <rect id="TITLE_FRAME" x="134" y="44" width="1652" height="110" fill="none"/>
  <g id="DIAGRAM_SCALER">
    <line x1="960" y1="220" x2="960" y2="970" stroke="var(--border)" stroke-width="8" stroke-linecap="round" opacity="0.75"/>
    <line x1="960" y1="289.2" x2="914" y2="289.2" stroke="var(--accent-1)" stroke-width="4" stroke-linecap="round" opacity="0.55"/>
    <circle cx="960" cy="289.2" r="9" fill="var(--accent-1)" opacity="0.95" filter="url(#svg0bf58878-soft-glow)"/>
    <rect id="ITEM_1_BG" x="254.0" y="228.0" width="660.0" height="122.4" rx="61.2" fill="var(--panel)" stroke="var(--accent-1)" stroke-width="3" filter="url(#svg0bf58878-shadow)"/>
    <rect x="894.0" y="228.0" width="20" height="122.4" rx="10" fill="var(--accent-1)" fill-opacity="0.14"/>
    <circle id="ITEM_1_PAD" cx="828.0" cy="289.2" r="42" fill="var(--icon-pad-bg)" stroke="var(--primary-text)" opacity="0.92" fill-opacity="0.9" stroke-width="2"/>
    <circle id="ITEM_1_PAD_INNER" cx="828.0" cy="289.2" r="32.76" fill="var(--accent-3)" fill-opacity="0.22"/>
    <circle cx="828.0" cy="289.2" r="33.6" fill="none" stroke="var(--accent-1)" stroke-width="3" stroke-dasharray="6 4"/>
    <g id="ITEM_1_ICON" transform="translate(802.0, 263.2)" data-icon-size="52" stroke-dasharray="6 4">
      <g transform="translate(-6.759999999999998,-6.759999999999998) scale(4.68)" vector-effect="non-scaling-stroke" stroke-width="2.34" stroke-linecap="round" stroke-linejoin="round" stroke-opacity="1.0">
        <path id="Vector" fill="none" d="M6 11.5a5.5 5.5 0 1 0 0 -11 5.5 5.5 0 0 0 0 11Z" vector-effect="non-scaling-stroke" stroke="#f1f5f9"/>
        <path id="Vector_2" stroke="#f1f5f9" d="M6 11.5a5.5 5.5 0 1 0 0 -11 5.5 5.5 0 0 0 0 11Z" vector-effect="non-scaling-stroke" fill="none"/>
        <path id="Vector_3" stroke="#f1f5f9" d="M13.5 13.5 10 10" vector-effect="non-scaling-stroke" fill="none"/>
      </g>
    </g>
    <text id="ITEM_1_HEAD" x="710.0" y="247.2" text-anchor="end" font-weight="bold" font-size="28" fill="var(--accent-3)" data-bg-id="ITEM_1_BG" fill-opacity="1.0" stroke="none" style="font-size: 30px; font-family: Inter, Segoe UI, Kalam, Roboto, Helvetica, Arial, sans-serif; font-weight: 700; letter-spacing:-0.4px;" data-final-font-size="30">
      <tspan x="710.0" dy="28.25px">Training Representation</tspan>
    </text>
    <rect id="ITEM_1_HEAD_FRAME" x="290.0" y="247.2" width="420.0" height="40" fill="none"/>
    <text id="ITEM_1_BODY" x="710.0" y="291.2" text-anchor="end" font-size="20" fill="var(--primary-text)" data-bg-id="ITEM_1_BG" style="font-size: 26px; font-family: Inter, Segoe UI, Kalam, Roboto, Helvetica, Arial, sans-serif; font-weight: 400;" data-final-font-size="26">
      <tspan x="710.0" dy="20.84px">Identify which demographic groups</tspan>
      <tspan x="710.0" dy="29.90px">are currently included</tspan>
    </text>
    <rect id="ITEM_1_BODY_FRAME" x="290.0" y="291.2" width="420.0" height="60" fill="none"/>
    <line x1="960" y1="439.6" x2="1006" y2="439.6" stroke="var(--accent-2)" stroke-width="4" stroke-linecap="round" opacity="0.55"/>
    <circle cx="960" cy="439.6" r="9" fill="var(--accent-2)" opacity="0.95" filter="url(#svg0bf58878-soft-glow)"/>
    <rect id="ITEM_2_BG" x="1006.0" y="378.4" width="660.0" height="122.4" rx="61.2" fill="var(--panel)" stroke="var(--accent-2)" stroke-width="3" filter="url(#svg0bf58878-shadow)"/>
    <rect x="1006.0" y="378.4" width="20" height="122.4" rx="10" fill="var(--accent-2)" fill-opacity="0.14"/>
    <circle id="ITEM_2_PAD" cx="1092.0" cy="439.6" r="42" fill="var(--icon-pad-bg)" stroke="var(--primary-text)" opacity="0.92" fill-opacity="0.9" stroke-width="2"/>
    <circle id="ITEM_2_PAD_INNER" cx="1092.0" cy="439.6" r="32.76" fill="var(--accent-4)" fill-opacity="0.22"/>
    <circle cx="1092.0" cy="439.6" r="33.6" fill="none" stroke="var(--accent-2)" stroke-width="3" stroke-dasharray="6 4"/>
    <g id="ITEM_2_ICON" transform="translate(1066.0, 413.6)" data-icon-size="52" stroke-dasharray="6 4">
      <g transform="translate(-11.439999999999998,-11.439999999999998) scale(2.34)">
        <path d="M14 28.2921C19.6841 28.2921 24.292 23.6842 24.292 18C24.292 12.3159 19.6841 7.70801 14 7.70801C8.31585 7.70801 3.70795 12.3159 3.70795 18C3.70795 23.6842 8.31585 28.2921 14 28.2921Z" fill="#F4F4F4"/>
        <path d="M26 18C26 11.3726 20.6274 6 14 6C7.37258 6 2 11.3726 2 18C2 24.6274 7.37258 30 14 30C20.6274 30 26 24.6274 26 18ZM23 18C23 22.9705 18.9706 27 14 27C9.02944 27 5 22.9705 5 18C5 13.0294 9.02944 9 14 9C18.9706 9 23 13.0294 23 18ZM14 24C10.6863 24 8 21.3137 8 18C8 14.6863 10.6863 12 14 12C17.3137 12 20 14.6863 20 18C20 21.3137 17.3137 24 14 24ZM17 18C17 16.3432 15.6569 15 14 15C12.3431 15 11 16.3432 11 18C11 19.6568 12.3431 21 14 21C15.6569 21 17 19.6568 17 18Z" fill="#F8312F"/>
        <path d="M14.2505 17.742C14.595 18.086 15.1379 18.086 15.4824 17.742L19.7416 13.4883C20.0861 13.1442 20.0861 12.6021 19.7416 12.258C19.3971 11.914 18.8543 11.914 18.5098 12.258L14.2505 16.5117C13.9165 16.8558 13.9165 17.3979 14.2505 17.742Z" fill="#9B9B9B"/>
        <path d="M19.6577 10.093L19.2077 8.50301C18.6677 6.60301 19.1977 4.55298 20.5977 3.16298L21.4877 2.273C21.9777 1.773 22.8177 1.99298 23.0077 2.66298L24 6L19.6577 10.093ZM22 12.3299L23.5717 12.7884C25.4499 13.3385 27.4763 12.7986 28.8504 11.3722L29.7301 10.4655C30.2244 9.96628 30.0069 9.11049 29.3446 8.91692L26 8L22 12.3299Z" fill="#46A4FB"/>
        <path d="M15.8499 16.1517C17.0736 17.3745 19.0777 17.2589 20.1569 15.9111L25.5815 9.1139C26.1886 8.35332 26.1307 7.25576 25.437 6.56257C24.7433 5.86938 23.6448 5.81159 22.8836 6.41813L16.0811 11.8385C14.7418 12.9265 14.6262 14.929 15.8499 16.1517Z" fill="#50E2FF"/>
        <path d="M21.258 10.742C21.6021 11.086 22.1442 11.086 22.4883 10.742L26.742 6.48829C27.086 6.14424 27.086 5.60208 26.742 5.25804C26.3979 4.91399 25.8558 4.91399 25.5117 5.25804L21.258 9.51174C20.914 9.85579 20.914 10.4083 21.258 10.742Z" fill="#46A4FB"/>
      </g>
    </g>
    <text id="ITEM_2_HEAD" x="1162.0" y="397.6" text-anchor="start" font-weight="bold" font-size="28" fill="var(--accent-4)" data-bg-id="ITEM_2_BG" fill-opacity="1.0" stroke="none" style="font-size: 30px; font-family: Inter, Segoe UI, Kalam, Roboto, Helvetica, Arial, sans-serif; font-weight: 700; letter-spacing:-0.4px;" data-final-font-size="30">
      <tspan x="1162.0" dy="28.25px">Intended User Fit</tspan>
    </text>
    <rect id="ITEM_2_HEAD_FRAME" x="1162.0" y="397.6" width="420.0" height="40" fill="none"/>
    <text id="ITEM_2_BODY" x="1162.0" y="441.6" text-anchor="start" font-size="20" fill="var(--primary-text)" data-bg-id="ITEM_2_BG" style="font-size: 26px; font-family: Inter, Segoe UI, Kalam, Roboto, Helvetica, Arial, sans-serif; font-weight: 400;" data-final-font-size="26">
      <tspan x="1162.0" dy="20.84px">Compare deployment population</tspan>
      <tspan x="1162.0" dy="29.90px">against development data</tspan>
    </text>
    <rect id="ITEM_2_BODY_FRAME" x="1162.0" y="441.6" width="420.0" height="60" fill="none"/>
    <line x1="960" y1="590.0" x2="914" y2="590.0" stroke="var(--accent-3)" stroke-width="4" stroke-linecap="round" opacity="0.55"/>
    <circle cx="960" cy="590.0" r="9" fill="var(--accent-3)" opacity="0.95" filter="url(#svg0bf58878-soft-glow)"/>
    <rect id="ITEM_3_BG" x="254.0" y="528.8" width="660.0" height="122.4" rx="61.2" fill="var(--panel)" stroke="var(--accent-3)" stroke-width="3" filter="url(#svg0bf58878-shadow)"/>
    <rect x="894.0" y="528.8" width="20" height="122.4" rx="10" fill="var(--accent-3)" fill-opacity="0.14"/>
    <circle id="ITEM_3_PAD" cx="828.0" cy="590.0" r="42" fill="var(--icon-pad-bg)" stroke="var(--primary-text)" opacity="0.92" fill-opacity="0.9" stroke-width="2"/>
    <circle id="ITEM_3_PAD_INNER" cx="828.0" cy="590.0" r="32.76" fill="var(--accent-5)" fill-opacity="0.22"/>
    <circle cx="828.0" cy="590.0" r="33.6" fill="none" stroke="var(--accent-3)" stroke-width="3" stroke-dasharray="6 4"/>
    <g id="ITEM_3_ICON" transform="translate(802.0, 564.0)" data-icon-size="52" stroke-dasharray="6 4">
      <g transform="translate(-11.439999999999998,-11.439999999999998) scale(2.34)">
        <path d="M2 6C2 3.79086 3.79086 2 6 2H26C28.2091 2 30 3.79086 30 6V26C30 27.4806 29.1956 28.7733 28 29.4649L26.5537 28.9997C25.5578 28.6794 24.4759 28.762 23.5402 29.2299L22 30H19L16 28.5L13 30H10L8.45982 29.2299C7.52406 28.762 6.44223 28.6794 5.44626 28.9997L4 29.4649C2.8044 28.7733 2 27.4806 2 26V6Z" fill="#E1D8EC"/>
        <path d="M10 11V21H2V22H10V30H11V22H21V30H22V22H30V21H22V11H30V10H22V2H21V10H11V2H10V10H2V11H10ZM11 11H21V21H11V11Z" fill="#B4ACBC"/>
        <path d="M6 30H10V10.2135C10 9.54155 9.4527 9 8.77365 9H5.22635C4.5473 9 4 9.54155 4 10.2135V29.4649C4.58835 29.8052 5.27143 30 6 30Z" fill="#00D26A"/>
        <path d="M17.7736 17H14.2264C13.5473 17 13 17.5417 13 18.2137V30H19V18.2137C19 17.5417 18.4527 17 17.7736 17Z" fill="#F70A8D"/>
        <path d="M22 30H26C26.7286 30 27.4117 29.8052 28 29.4649V7.20899C28 6.53955 27.4527 6 26.7736 6H23.2264C22.5473 6 22 6.53955 22 7.20899V30Z" fill="#00A6ED"/>
      </g>
    </g>
    <text id="ITEM_3_HEAD" x="710.0" y="548.0" text-anchor="end" font-weight="bold" font-size="28" fill="var(--accent-5)" data-bg-id="ITEM_3_BG" fill-opacity="1.0" stroke="none" style="font-size: 30px; font-family: Inter, Segoe UI, Kalam, Roboto, Helvetica, Arial, sans-serif; font-weight: 700; letter-spacing:-0.4px;" data-final-font-size="30">
      <tspan x="710.0" dy="28.25px">Subgroup Evaluation</tspan>
    </text>
    <rect id="ITEM_3_HEAD_FRAME" x="290.0" y="548.0" width="420.0" height="40" fill="none"/>
    <text id="ITEM_3_BODY" x="710.0" y="592.0" text-anchor="end" font-size="20" fill="var(--primary-text)" data-bg-id="ITEM_3_BG" style="font-size: 26px; font-family: Inter, Segoe UI, Kalam, Roboto, Helvetica, Arial, sans-serif; font-weight: 400;" data-final-font-size="26">
      <tspan x="710.0" dy="20.84px">Verify if performance was tested</tspan>
      <tspan x="710.0" dy="29.90px">across different groups</tspan>
    </text>
    <rect id="ITEM_3_BODY_FRAME" x="290.0" y="592.0" width="420.0" height="60" fill="none"/>
    <line x1="960" y1="740.4" x2="1006" y2="740.4" stroke="var(--accent-4)" stroke-width="4" stroke-linecap="round" opacity="0.55"/>
    <circle cx="960" cy="740.4" r="9" fill="var(--accent-4)" opacity="0.95" filter="url(#svg0bf58878-soft-glow)"/>
    <rect id="ITEM_4_BG" x="1006.0" y="679.2" width="660.0" height="122.4" rx="61.2" fill="var(--panel)" stroke="var(--accent-4)" stroke-width="3" filter="url(#svg0bf58878-shadow)"/>
    <rect x="1006.0" y="679.2" width="20" height="122.4" rx="10" fill="var(--accent-4)" fill-opacity="0.14"/>
    <circle id="ITEM_4_PAD" cx="1092.0" cy="740.4" r="42" fill="var(--icon-pad-bg)" stroke="var(--primary-text)" opacity="0.92" fill-opacity="0.9" stroke-width="2"/>
    <circle id="ITEM_4_PAD_INNER" cx="1092.0" cy="740.4" r="32.76" fill="var(--accent-6)" fill-opacity="0.22"/>
    <circle cx="1092.0" cy="740.4" r="33.6" fill="none" stroke="var(--accent-4)" stroke-width="3" stroke-dasharray="6 4"/>
    <g id="ITEM_4_ICON" transform="translate(1066.0, 714.4)" data-icon-size="52" stroke-dasharray="6 4">
      <g transform="translate(-11.439999999999998,-11.439999999999998) scale(2.34)">
        <path d="M21.74 16.08L8.83 3.17C7.27 1.61 4.74 1.61 3.17 3.17C1.61 4.73 1.61 7.26 3.17 8.83L16.08 21.74C15.69 23.92 16.34 26.24 18.02 27.92C20.75 30.65 25.19 30.65 27.92 27.92C30.65 25.19 30.65 20.75 27.92 18.02C26.24 16.34 23.92 15.7 21.74 16.08Z" fill="#F4F4F4"/>
        <path d="M4.59 7.42002C3.81 6.64002 3.81 5.37 4.59 4.59C5.37 3.81 6.63 3.81 7.42 4.59L21.1439 18.3139C21.7096 18.0919 22.3255 17.97 22.97 17.97C25.7314 17.97 27.97 20.2085 27.97 22.97C27.97 25.7314 25.7314 27.97 22.97 27.97C20.2085 27.97 17.97 25.7314 17.97 22.97C17.97 22.3255 18.0919 21.7096 18.3139 21.1439L4.59 7.42002Z" fill="#F8312F"/>
        <path d="M10.23 4.59998L8.11 6.71997C7.72 7.10997 7.72 7.74997 8.11 8.12997C8.5 8.51997 9.13 8.51997 9.52 8.12997L11.64 6.00998L10.23 4.59998ZM12.35 10.97L14.47 8.84998L15.88 10.26L13.76 12.38C13.37 12.77 12.74 12.77 12.35 12.38C11.96 11.99 11.96 11.36 12.35 10.97ZM16.59 15.21L18.71 13.09L20.12 14.5L18 16.62C17.61 17.01 16.98 17.01 16.59 16.62C16.2 16.23 16.2 15.6 16.59 15.21Z" fill="black"/>
        <path d="M24.97 23.97C26.0745 23.97 26.97 23.0745 26.97 21.97C26.97 20.8654 26.0745 19.97 24.97 19.97C23.8654 19.97 22.97 20.8654 22.97 21.97C22.97 23.0745 23.8654 23.97 24.97 23.97Z" fill="#FF8687"/>
      </g>
    </g>
    <text id="ITEM_4_HEAD" x="1162.0" y="698.4" text-anchor="start" font-weight="bold" font-size="28" fill="var(--accent-6)" data-bg-id="ITEM_4_BG" fill-opacity="1.0" stroke="none" style="font-size: 30px; font-family: Inter, Segoe UI, Kalam, Roboto, Helvetica, Arial, sans-serif; font-weight: 700; letter-spacing:-0.4px;" data-final-font-size="30">
      <tspan x="1162.0" dy="28.25px">Environmental Fidelity</tspan>
    </text>
    <rect id="ITEM_4_HEAD_FRAME" x="1162.0" y="698.4" width="420.0" height="40" fill="none"/>
    <text id="ITEM_4_BODY" x="1162.0" y="742.4" text-anchor="start" font-size="20" fill="var(--primary-text)" data-bg-id="ITEM_4_BG" style="font-size: 26px; font-family: Inter, Segoe UI, Kalam, Roboto, Helvetica, Arial, sans-serif; font-weight: 400;" data-final-font-size="26">
      <tspan x="1162.0" dy="20.84px">Check if test conditions match</tspan>
      <tspan x="1162.0" dy="29.90px">real-world settings</tspan>
    </text>
    <rect id="ITEM_4_BODY_FRAME" x="1162.0" y="742.4" width="420.0" height="60" fill="none"/>
    <line x1="960" y1="890.8" x2="914" y2="890.8" stroke="var(--accent-5)" stroke-width="4" stroke-linecap="round" opacity="0.55"/>
    <circle cx="960" cy="890.8" r="9" fill="var(--accent-5)" opacity="0.95" filter="url(#svg0bf58878-soft-glow)"/>
    <rect id="ITEM_5_BG" x="254.0" y="829.6" width="660.0" height="122.4" rx="61.2" fill="var(--panel)" stroke="var(--accent-5)" stroke-width="3" filter="url(#svg0bf58878-shadow)"/>
    <rect x="894.0" y="829.6" width="20" height="122.4" rx="10" fill="var(--accent-5)" fill-opacity="0.14"/>
    <circle id="ITEM_5_PAD" cx="828.0" cy="890.8" r="42" fill="var(--icon-pad-bg)" stroke="var(--primary-text)" opacity="0.92" fill-opacity="0.9" stroke-width="2"/>
    <circle id="ITEM_5_PAD_INNER" cx="828.0" cy="890.8" r="32.76" fill="var(--accent-1)" fill-opacity="0.22"/>
    <circle cx="828.0" cy="890.8" r="33.6" fill="none" stroke="var(--accent-5)" stroke-width="3" stroke-dasharray="6 4"/>
    <g id="ITEM_5_ICON" transform="translate(802.0, 864.8)" data-icon-size="52" stroke-dasharray="6 4">
      <g transform="translate(-10.78315789473684,-11.932631578947369) scale(1.839157894736842)">
        <path d="m16.726,6.632L2.811,30.734c-1.455,2.52.364,5.67,3.274,5.67h27.831c2.91,0,4.728-3.15,3.274-5.67L23.274,6.632c-1.455-2.52-5.092-2.52-6.547,0Z" fill="#ffcd00"/>
        <path d="m20,27.547c-1.044,0-1.89.846-1.89,1.89s.846,1.89,1.89,1.89,1.89-.846,1.89-1.89-.846-1.89-1.89-1.89h0Z" fill="#303d4c"/>
        <path d="m20,25.078c-.884,0-1.6-.716-1.6-1.6v-7.875c0-.884.716-1.6,1.6-1.6s1.6.716,1.6,1.6v7.875c0,.884-.716,1.6-1.6,1.6Z" fill="#303d4c"/>
      </g>
    </g>
    <text id="ITEM_5_HEAD" x="710.0" y="848.8" text-anchor="end" font-weight="bold" font-size="28" fill="var(--accent-1)" data-bg-id="ITEM_5_BG" fill-opacity="1.0" stroke="none" style="font-size: 30px; font-family: Inter, Segoe UI, Kalam, Roboto, Helvetica, Arial, sans-serif; font-weight: 700; letter-spacing:-0.4px;" data-final-font-size="30">
      <tspan x="710.0" dy="28.25px">Documented Limitations</tspan>
    </text>
    <rect id="ITEM_5_HEAD_FRAME" x="290.0" y="848.8" width="420.0" height="40" fill="none"/>
    <text id="ITEM_5_BODY" x="710.0" y="892.8" text-anchor="end" font-size="20" fill="var(--primary-text)" data-bg-id="ITEM_5_BG" style="font-size: 26px; font-family: Inter, Segoe UI, Kalam, Roboto, Helvetica, Arial, sans-serif; font-weight: 400;" data-final-font-size="26">
      <tspan x="710.0" dy="20.84px">Review known scenarios</tspan>
      <tspan x="710.0" dy="29.90px">where model performance weakens</tspan>
    </text>
    <rect id="ITEM_5_BODY_FRAME" x="290.0" y="892.8" width="420.0" height="60" fill="none"/>
  </g>
</svg>
