<?xml version='1.0' encoding='utf-8'?>
<svg xmlns="http://www.w3.org/2000/svg" width="1920" height="1080" viewBox="0 0 1920 1080" data-theme="light">
  <style>
        @font-face {
            font-family: 'Inter';
            src: url('assets/fonts/Inter-Regular.ttf') format('truetype');
            font-weight: 400;
            font-style: normal;
            font-display: swap;
        }
        @font-face {
            font-family: 'Inter';
            src: url('assets/fonts/Inter-Bold.ttf') format('truetype');
            font-weight: 600;
            font-style: normal;
            font-display: swap;
        }
        @font-face {
            font-family: 'Inter';
            src: url('assets/fonts/Inter-Bold.ttf') format('truetype');
            font-weight: 800;
            font-style: normal;
            font-display: swap;
        }
        
:root {
    --background: #f8fafc;
    --panel: #ffffff;
    --primary-text: #0f172a;
    --muted-text: #64748b;
    --inverse-text: #ffffff;
    --border: #e2e8f0;
    --shadow-color: #000000;
    --icon-pad-bg: #1e293b;
    --art-glow: #0891b2;
    --art-glow-opacity: 0.10;
    --art-sheen: #ffffff;
    --art-sheen-opacity: 0.34;
    --art-shadow: #0f172a;
    --art-shadow-opacity: 0.14;
    --art-muted-line: #94a3b8;
    --art-panel-tint: #f1f5f9;
    --font-family: 'Inter', 'Segoe UI', 'Kalam', Roboto, Helvetica, Arial, sans-serif;
    --radius-xl: 16px;
    --font-family-headline: 'Inter', 'Segoe UI', 'Kalam', Roboto, Helvetica, Arial, sans-serif;
    --font-family-body: 'Inter', 'Segoe UI', 'Kalam', Roboto, Helvetica, Arial, sans-serif;
    --font-heading: 'Inter', 'Segoe UI', 'Kalam', Roboto, Helvetica, Arial, sans-serif;
    --font-body: 'Inter', 'Segoe UI', 'Kalam', Roboto, Helvetica, Arial, sans-serif;
    --font-size-h1: 56px;
    --font-size-h2: 40px;
    --font-size-h3: 28px;
    --font-size-body: 24px;
    --font-size-caption: 18px;
    --secondary-text: var(--muted-text);
    --panel-border: var(--border);
    --font-weight-normal: 400;
    --font-weight-medium: 500;
    --font-weight-semibold: 600;
    --font-weight-bold: 700;
    --spacing-gutter-pct: 0.07;
    --spacing-top-pct: 0.15;
    --spacing-bottom-pct: 0.07;
    --spacing-title-y-pct: 0.055;
    --accent-1: #d97706;
    --accent-2: #ea580c;
    --accent-3: #dc2626;
    --accent-4: #65a30d;
    --accent-5: #16a34a;
    --accent-6: #92400e;
}
:root[data-theme="dark"] {
    --background: #0f172a;
    --panel: #1e293b;
    --primary-text: #f1f5f9;
    --muted-text: #94a3b8;
    --inverse-text: #0f172a;
    --border: #334155;
    --shadow-color: #000000;
    --icon-pad-bg: #1e293b;
    --art-glow: #7dd3fc;
    --art-glow-opacity: 0.18;
    --art-sheen: #ffffff;
    --art-sheen-opacity: 0.18;
    --art-shadow: #000000;
    --art-shadow-opacity: 0.28;
    --art-muted-line: #64748b;
    --art-panel-tint: #1e293b;
    --accent-1: #fbbf24;
    --accent-2: #fb923c;
    --accent-3: #f87171;
    --accent-4: #a3e635;
    --accent-5: #4ade80;
    --accent-6: #d4a574;
}
:root[data-theme="light"] {
    --background: #f8fafc;
    --panel: #ffffff;
    --primary-text: #0f172a;
    --muted-text: #64748b;
    --inverse-text: #ffffff;
    --border: #e2e8f0;
    --shadow-color: #000000;
    --icon-pad-bg: #1e293b;
    --art-glow: #0891b2;
    --art-glow-opacity: 0.10;
    --art-sheen: #ffffff;
    --art-sheen-opacity: 0.34;
    --art-shadow: #0f172a;
    --art-shadow-opacity: 0.14;
    --art-muted-line: #94a3b8;
    --art-panel-tint: #f1f5f9;
    --accent-1: #d97706;
    --accent-2: #ea580c;
    --accent-3: #dc2626;
    --accent-4: #65a30d;
    --accent-5: #16a34a;
    --accent-6: #92400e;
}</style>
  <rect x="0" y="0" width="1.92E+3" height="1.08E+3" fill="#252a34" stroke="none" id="programmatic_background"/>
  <line id="HEADER_DECOR" x1="960.0" x2="1080.0" y1="135.0" y2="135.0" stroke="var(--accent-1)" stroke-width="6" stroke-linecap="round"/>
  <defs>
    <pattern id="svgc9f7b552-napkin-hatch" patternUnits="userSpaceOnUse" width="12" height="12">
      <path d="M -3 12 L 12 -3 M 0 15 L 15 0" fill="none" stroke="var(--primary-text)" stroke-width="1" stroke-opacity="0.05"/>
    </pattern>
    <radialGradient id="svgc9f7b552-universal-edge-vignette" cx="50%" cy="50%" r="72%">
      <stop offset="0%" stop-color="var(--background)" stop-opacity="0"/>
      <stop offset="72%" stop-color="var(--background)" stop-opacity="0.12"/>
      <stop offset="100%" stop-color="var(--primary-text)" stop-opacity="0.08"/>
    </radialGradient>
    <linearGradient id="svgc9f7b552-universal-surface-sheen" x1="0%" y1="0%" x2="100%" y2="100%">
      <stop offset="0%" stop-color="var(--art-sheen)" stop-opacity="var(--art-sheen-opacity)"/>
      <stop offset="46%" stop-color="var(--art-sheen)" stop-opacity="0.035"/>
      <stop offset="100%" stop-color="var(--art-panel-tint)" stop-opacity="0.14"/>
    </linearGradient>
    <radialGradient id="svgc9f7b552-universal-icon-aura" cx="50%" cy="42%" r="64%">
      <stop offset="0%" stop-color="var(--art-glow)" stop-opacity="var(--art-glow-opacity)"/>
      <stop offset="100%" stop-color="var(--background)" stop-opacity="0"/>
    </radialGradient>
    <filter id="svgc9f7b552-text-glow" x="-20%" y="-20%" width="140%" height="140%">
      <feDropShadow dx="0" dy="0" stdDeviation="2" flood-color="#000000" flood-opacity="0.4"/>
    </filter>
    <filter id="svgc9f7b552-shadow" x="-30%" y="-30%" width="160%" height="160%">
      <feDropShadow dx="0" dy="2" stdDeviation="3" flood-color="#000000" flood-opacity="0.08"/>
      <feDropShadow dx="0" dy="6" stdDeviation="10" flood-color="#000000" flood-opacity="0.12"/>
    </filter>
    <marker id="svgc9f7b552-arrowhead" markerWidth="10" markerHeight="7" refX="9" refY="3.5" orient="auto" markerUnits="strokeWidth">
      <polygon points="0 0, 10 3.5, 0 7" fill="var(--muted-text)" opacity="0.6"/>
    </marker>
  </defs>
  <rect width="100%" height="100%" fill="var(--background)" id="CANVAS_BG"/>
  <rect width="100%" height="100%" fill="url(#svgc9f7b552-napkin-hatch)"/>
  <rect id="UNIVERSAL_EDGE_VIGNETTE" width="100%" height="100%" fill="url(#svgc9f7b552-universal-edge-vignette)" opacity="0.62"/>
  <text id="TITLE" x="960.0" y="59" font-size="63" font-weight="700" fill="#0f172a" style="font-size: 60px; font-family: Inter, Segoe UI, Kalam, Roboto, Helvetica, Arial, sans-serif; font-weight: 700; letter-spacing:-1.2px;" text-anchor="middle" data-final-font-size="60">
    <tspan x="960.0" dy="68.00px">The Verbosity Bias Feedback Loop</tspan>
  </text>
  <rect id="TITLE_FRAME" x="134" y="59" width="1652" height="103" fill="none"/>
  <g transform="translate(960.0, 315.0) translate(0, 60)">
    <path id="ITEM_1_BG" d="M -120 90 Q 0 -60 120 90" fill="var(--accent-6)" stroke="var(--accent-1)" stroke-linecap="round" stroke-width="2" fill-opacity="1.0"/>
    <circle r="50" fill="var(--background)" stroke="var(--accent-1)" stroke-width="3"/>
    <g transform="translate(130.0, 0.0)">
      <text id="ITEM_1_HEAD" text-anchor="start" font-weight="bold" font-size="33" fill="var(--inverse-text)" x="0.0" y="-42.0" data-bg-id="ITEM_1_BG" fill-opacity="1.0" style="font-size: 30px; font-family: Inter, Segoe UI, Kalam, Roboto, Helvetica, Arial, sans-serif; font-weight: 700; letter-spacing:-0.4px;" data-final-font-size="30">
        <tspan x="0.0" dy="29.25px">Higher Ratings</tspan>
      </text>
      <rect id="ITEM_1_HEAD_FRAME" x="0" y="-42" width="360" height="42" fill="none"/>
      <text id="ITEM_1_BODY" text-anchor="start" font-size="21" fill="var(--inverse-text)" x="12.0" y="0.0" opacity="0.9" data-bg-id="ITEM_1_BG" style="font-size: 26px; font-family: Inter, Segoe UI, Kalam, Roboto, Helvetica, Arial, sans-serif; font-weight: 400;" data-final-font-size="26">
        <tspan x="12.0" dy="32.84px">Longer answers receive</tspan>
        <tspan x="12.0" dy="29.90px">higher scores from evaluators</tspan>
      </text>
      <rect id="ITEM_1_BODY_FRAME" x="12" y="0" width="380" height="120" fill="none"/>
    </g>
    <circle id="ITEM_1_PAD" cx="0" cy="0" r="58" fill="var(--icon-pad-bg)" stroke="var(--primary-text)" opacity="0.9" fill-opacity="0.9" stroke-width="2"/>
    <circle id="ITEM_1_PAD_INNER" cx="0" cy="0" r="45.24" fill="var(--accent-6)" fill-opacity="0.22"/>
    <circle cx="0" cy="0" r="46.4" fill="none" stroke="var(--accent-1)" stroke-width="3" stroke-dasharray="6 4"/>
    <g id="ITEM_1_ICON" transform="translate(-45.0, -45.0)" data-icon-size="90" stroke-dasharray="6 4">
      <g transform="translate(-8.61777777777778,-8.61777777777778) scale(4.468148148148148)" vector-effect="non-scaling-stroke" stroke-width="2.79" stroke-linecap="round" stroke-linejoin="round" stroke-opacity="1.0">
        <rect width="18" height="18" x="3" y="3" rx="2" ry="2" vector-effect="non-scaling-stroke" fill="none" stroke="#f1f5f9"/>
        <line x1="3" x2="21" y1="9" y2="9" vector-effect="non-scaling-stroke" fill="none" stroke="#f1f5f9"/>
        <line x1="3" x2="21" y1="15" y2="15" vector-effect="non-scaling-stroke" fill="none" stroke="#f1f5f9"/>
        <line x1="9" x2="9" y1="9" y2="21" vector-effect="non-scaling-stroke" fill="none" stroke="#f1f5f9"/>
        <line x1="15" x2="15" y1="9" y2="21" vector-effect="non-scaling-stroke" fill="none" stroke="#f1f5f9"/>
      </g>
    </g>
  </g>
  <g transform="translate(1260.0, 500.0) translate(0, 60)">
    <path id="ITEM_2_BG" d="M -120 -90 Q -60 0 -120 90" fill="var(--accent-1)" stroke="var(--accent-2)" stroke-linecap="round" stroke-width="2" fill-opacity="1.0"/>
    <circle r="50" fill="var(--background)" stroke="var(--accent-2)" stroke-width="3"/>
    <g transform="translate(120.0, 0.0)">
      <text id="ITEM_2_HEAD" text-anchor="start" font-weight="bold" font-size="33" fill="var(--primary-text)" x="0.0" y="-30.0" data-bg-id="ITEM_2_BG" fill-opacity="1.0" style="font-size: 30px; font-family: Inter, Segoe UI, Kalam, Roboto, Helvetica, Arial, sans-serif; font-weight: 700; letter-spacing:-0.4px;" data-final-font-size="30">
        <tspan x="0.0" dy="29.25px">Model Learning</tspan>
      </text>
      <rect id="ITEM_2_HEAD_FRAME" x="0" y="-30" width="360" height="42" fill="none"/>
      <text id="ITEM_2_BODY" text-anchor="start" font-size="21" fill="var(--primary-text)" x="12.0" y="24.0" opacity="0.9" data-bg-id="ITEM_2_BG" style="font-size: 26px; font-family: Inter, Segoe UI, Kalam, Roboto, Helvetica, Arial, sans-serif; font-weight: 400;" data-final-font-size="26">
        <tspan x="12.0" dy="32.84px">Reward models identify length</tspan>
        <tspan x="12.0" dy="29.90px">as a quality signal</tspan>
      </text>
      <rect id="ITEM_2_BODY_FRAME" x="12" y="24" width="380" height="120" fill="none"/>
    </g>
    <circle id="ITEM_2_PAD" cx="0" cy="0" r="58" fill="var(--icon-pad-bg)" stroke="var(--primary-text)" opacity="0.9" fill-opacity="0.9" stroke-width="2"/>
    <circle id="ITEM_2_PAD_INNER" cx="0" cy="0" r="45.24" fill="var(--accent-1)" fill-opacity="0.22"/>
    <circle cx="0" cy="0" r="46.4" fill="none" stroke="var(--accent-1)" stroke-width="3" stroke-dasharray="6 4"/>
    <g id="ITEM_2_ICON" transform="translate(-45.0, -45.0)" data-icon-size="90" stroke-dasharray="6 4">
      <g transform="translate(-8.61777777777778,-8.61777777777778) scale(4.468148148148148)" vector-effect="non-scaling-stroke" stroke-width="2.79" stroke-linecap="round" stroke-linejoin="round" stroke-opacity="1.0">
        <rect width="18" height="18" x="3" y="3" rx="2" vector-effect="non-scaling-stroke" fill="none" stroke="#f1f5f9"/>
        <path d="M11 9h4a2 2 0 0 0 2-2V3" vector-effect="non-scaling-stroke" fill="none" stroke="#f1f5f9"/>
        <circle cx="9" cy="9" r="2" vector-effect="non-scaling-stroke" fill="none" stroke="#f1f5f9"/>
        <path d="M7 21v-4a2 2 0 0 1 2-2h4" vector-effect="non-scaling-stroke" fill="none" stroke="#f1f5f9"/>
        <circle cx="15" cy="15" r="2" vector-effect="non-scaling-stroke" fill="none" stroke="#f1f5f9"/>
      </g>
    </g>
  </g>
  <g transform="translate(960.0, 720.0) translate(0, 60)">
    <path id="ITEM_3_BG" d="M -120 -150 Q 0 0 120 -150" fill="var(--accent-2)" stroke="var(--accent-3)" stroke-linecap="round" stroke-width="2" fill-opacity="1.0"/>
    <circle r="50" fill="var(--background)" stroke="var(--accent-3)" stroke-width="3"/>
    <g transform="translate(0.0, 110.0)">
      <text id="ITEM_3_HEAD" text-anchor="middle" font-weight="bold" font-size="33" fill="var(--primary-text)" x="0.0" y="-30.0" data-bg-id="ITEM_3_BG" fill-opacity="1.0" style="font-size: 30px; font-family: Inter, Segoe UI, Kalam, Roboto, Helvetica, Arial, sans-serif; font-weight: 700; letter-spacing:-0.4px;" data-final-font-size="30">
        <tspan x="0.0" dy="29.25px">Training Optimization</tspan>
      </text>
      <rect id="ITEM_3_HEAD_FRAME" x="-180" y="-30" width="360" height="42" fill="none"/>
      <text id="ITEM_3_BODY" text-anchor="middle" font-size="21" fill="var(--primary-text)" x="0.0" y="17.0" opacity="0.9" data-bg-id="ITEM_3_BG" style="font-size: 26px; font-family: Inter, Segoe UI, Kalam, Roboto, Helvetica, Arial, sans-serif; font-weight: 400;" data-final-font-size="26">
        <tspan x="0.0" dy="32.84px">New models maximize scores</tspan>
        <tspan x="0.0" dy="29.90px">by increasing word count</tspan>
      </text>
      <rect id="ITEM_3_BODY_FRAME" x="-190" y="17.0" width="380" height="120" fill="none"/>
    </g>
    <circle id="ITEM_3_PAD" cx="0" cy="0" r="58" fill="var(--icon-pad-bg)" stroke="var(--primary-text)" opacity="0.9" fill-opacity="0.9" stroke-width="2"/>
    <circle id="ITEM_3_PAD_INNER" cx="0" cy="0" r="45.24" fill="var(--accent-2)" fill-opacity="0.22"/>
    <circle cx="0" cy="0" r="46.4" fill="none" stroke="var(--accent-2)" stroke-width="3" stroke-dasharray="6 4"/>
    <g id="ITEM_3_ICON" transform="translate(-45.0, -45.0)" data-icon-size="90" stroke-dasharray="6 4">
      <g transform="translate(-4.920000000000002,-4.920000000000002) scale(0.195)" vector-effect="non-scaling-stroke" fill="#f1f5f9" fill-opacity="1.0" stroke="none">
        <path fill="#f1f5f9" d="M41 25v78h430V25zm254 23h18v32h-18zm121 0a16 16 0 0 1 16 16a16 16 0 0 1-16 16a16 16 0 0 1-16-16a16 16 0 0 1 16-16M64 55h48v18H64zm80 0h48v18h-48zm80 0h48v18h-48zm-119 66v30h302v-30zm-64 48v78h430v-78zm254 23h18v32h-18zm121 0a16 16 0 0 1 16 16a16 16 0 0 1-16 16a16 16 0 0 1-16-16a16 16 0 0 1 16-16m-352 7h48v18H64zm80 0h48v18h-48zm80 0h48v18h-48zm-119 66v30h302v-30zm-64 48v78h430v-78zm254 23h18v32h-18zm121 0a16 16 0 0 1 16 16a16 16 0 0 1-16 16a16 16 0 0 1-16-16a16 16 0 0 1 16-16m-352 7h48v18H64zm80 0h48v18h-48zm80 0h48v18h-48zm13 66v30h38v-30zM25 457v30h130.2l20-30zm171.8 0l-20 30h158.4l-20-30zm140 0l20 30H487v-30z" vector-effect="non-scaling-stroke" stroke="none"/>
      </g>
    </g>
  </g>
  <g transform="translate(660.0, 500.0) translate(0, 60)">
    <path id="ITEM_4_BG" d="M 120 -90 Q 60 0 120 90" fill="var(--accent-3)" stroke="var(--accent-4)" stroke-linecap="round" stroke-width="2" fill-opacity="1.0"/>
    <circle r="50" fill="var(--background)" stroke="var(--accent-4)" stroke-width="3"/>
    <g transform="translate(-120.0, 0.0)">
      <text id="ITEM_4_HEAD" text-anchor="end" font-weight="bold" font-size="33" fill="var(--inverse-text)" x="0.0" y="-30.0" data-bg-id="ITEM_4_BG" fill-opacity="1.0" style="font-size: 30px; font-family: Inter, Segoe UI, Kalam, Roboto, Helvetica, Arial, sans-serif; font-weight: 700; letter-spacing:-0.4px;" data-final-font-size="30">
        <tspan x="0.0" dy="29.25px">Length Growth</tspan>
      </text>
      <rect id="ITEM_4_HEAD_FRAME" x="-360" y="-30" width="360" height="42" fill="none"/>
      <text id="ITEM_4_BODY" text-anchor="end" font-size="21" fill="var(--inverse-text)" x="-12.0" y="24.0" opacity="0.9" data-bg-id="ITEM_4_BG" style="font-size: 26px; font-family: Inter, Segoe UI, Kalam, Roboto, Helvetica, Arial, sans-serif; font-weight: 400;" data-final-font-size="26">
        <tspan x="-12.0" dy="32.84px">Response length expands</tspan>
        <tspan x="-12.0" dy="29.90px">further as rewards continue</tspan>
      </text>
      <rect id="ITEM_4_BODY_FRAME" x="-392" y="24" width="380" height="120" fill="none"/>
    </g>
    <circle id="ITEM_4_PAD" cx="0" cy="0" r="58" fill="var(--icon-pad-bg)" stroke="var(--primary-text)" opacity="0.9" fill-opacity="0.9" stroke-width="2"/>
    <circle id="ITEM_4_PAD_INNER" cx="0" cy="0" r="45.24" fill="var(--accent-3)" fill-opacity="0.22"/>
    <circle cx="0" cy="0" r="46.4" fill="none" stroke="var(--accent-3)" stroke-width="3" stroke-dasharray="6 4"/>
    <g id="ITEM_4_ICON" transform="translate(-45.0, -45.0)" data-icon-size="90" stroke-dasharray="6 4">
      <g transform="translate(0.14338983050847398,-4.073898305084748) scale(4.089491525423729)" vector-effect="non-scaling-stroke" stroke-width="2.79" stroke-linecap="round" stroke-linejoin="round" stroke-opacity="1.0">
        <path d="M14.5 22H18a2 2 0 0 0 2-2V7l-5-5H6a2 2 0 0 0-2 2v4" vector-effect="non-scaling-stroke" fill="none" stroke="#f1f5f9"/>
        <path d="M14 2v4a2 2 0 0 0 2 2h4" vector-effect="non-scaling-stroke" fill="none" stroke="#f1f5f9"/>
        <path d="M3 13.1a2 2 0 0 0-1 1.76v3.24a2 2 0 0 0 .97 1.78L6 21.7a2 2 0 0 0 2.03.01L11 19.9a2 2 0 0 0 1-1.76V14.9a2 2 0 0 0-.97-1.78L8 11.3a2 2 0 0 0-2.03-.01Z" vector-effect="non-scaling-stroke" fill="none" stroke="#f1f5f9"/>
        <path d="M7 17v5" vector-effect="non-scaling-stroke" fill="none" stroke="#f1f5f9"/>
        <path d="M11.7 14.2 7 17l-4.7-2.8" vector-effect="non-scaling-stroke" fill="none" stroke="#f1f5f9"/>
      </g>
    </g>
  </g>
</svg>
